<?xml version="1.0" encoding="UTF-8" standalone="no"?>
<!DOCTYPE svg PUBLIC "-//W3C//DTD SVG 1.1//EN"
 "http://www.w3.org/Graphics/SVG/1.1/DTD/svg11.dtd">
<!-- Generated by graphviz version 2.26.3 (20100126.1600)
 -->
<!-- Title: controllers_diagram Pages: 1 -->
<svg width="2857pt" height="1504pt"
 viewBox="0.00 0.00 2856.54 1504.05" xmlns="http://www.w3.org/2000/svg" xmlns:xlink="http://www.w3.org/1999/xlink">
<g id="graph1" class="graph" transform="scale(1 1) rotate(0) translate(4 1500.05)">
<title>controllers_diagram</title>
<polygon fill="white" stroke="white" points="-4,5 -4,-1500.05 2853.54,-1500.05 2853.54,5 -4,5"/>
<!-- _diagram_info -->
<g id="node1" class="node"><title>_diagram_info</title>
<text text-anchor="start" x="1833" y="-78.3" font-family="Times Roman,serif" font-size="13.00">Controllers diagram</text>
<text text-anchor="start" x="1833" y="-61.3" font-family="Times Roman,serif" font-size="13.00">Date: Dec 05 2013 &#45; 13:49</text>
<text text-anchor="start" x="1833" y="-44.3" font-family="Times Roman,serif" font-size="13.00">Migration version: 20131204011506</text>
<text text-anchor="start" x="1833" y="-27.3" font-family="Times Roman,serif" font-size="13.00">Generated by RailRoady 1.1.1</text>
<text text-anchor="start" x="1833" y="-10.3" font-family="Times Roman,serif" font-size="13.00">http://railroady.prestonlee.com</text>
</g>
<!-- RolesController -->
<g id="node2" class="node"><title>RolesController</title>
<ellipse fill="none" stroke="black" cx="138.545" cy="-633.758" rx="85.0596" ry="18.3848"/>
<text text-anchor="middle" x="138.545" y="-630.158" font-family="Times Roman,serif" font-size="14.00">RolesController</text>
</g>
<!-- ColaborationCollectionController -->
<g id="node3" class="node"><title>ColaborationCollectionController</title>
<ellipse fill="none" stroke="black" cx="1918.26" cy="-827.638" rx="169.205" ry="18.3848"/>
<text text-anchor="middle" x="1918.26" y="-824.038" font-family="Times Roman,serif" font-size="14.00">ColaborationCollectionController</text>
</g>
<!-- EventsCollectionsController -->
<g id="node4" class="node"><title>EventsCollectionsController</title>
<ellipse fill="none" stroke="black" cx="1145.6" cy="-171.5" rx="145.872" ry="18.3848"/>
<text text-anchor="middle" x="1145.6" y="-167.9" font-family="Times Roman,serif" font-size="14.00">EventsCollectionsController</text>
</g>
<!-- IphDrugsController -->
<g id="node5" class="node"><title>IphDrugsController</title>
<ellipse fill="none" stroke="black" cx="769.686" cy="-1469.9" rx="104.151" ry="18.3848"/>
<text text-anchor="middle" x="769.686" y="-1466.3" font-family="Times Roman,serif" font-size="14.00">IphDrugsController</text>
</g>
<!-- WeaponTypesController -->
<g id="node6" class="node"><title>WeaponTypesController</title>
<ellipse fill="none" stroke="black" cx="1651.9" cy="-731.45" rx="126.78" ry="18.3848"/>
<text text-anchor="middle" x="1651.9" y="-727.85" font-family="Times Roman,serif" font-size="14.00">WeaponTypesController</text>
</g>
<!-- WelcomeController -->
<g id="node7" class="node"><title>WelcomeController</title>
<ellipse fill="none" stroke="black" cx="691.23" cy="-833.076" rx="103.945" ry="18.3848"/>
<text text-anchor="middle" x="691.23" y="-829.476" font-family="Times Roman,serif" font-size="14.00">WelcomeController</text>
</g>
<!-- UsersController -->
<g id="node8" class="node"><title>UsersController</title>
<ellipse fill="none" stroke="black" cx="171.902" cy="-212.804" rx="86.9741" ry="18.3848"/>
<text text-anchor="middle" x="171.902" y="-209.204" font-family="Times Roman,serif" font-size="14.00">UsersController</text>
</g>
<!-- SearchesController -->
<g id="node9" class="node"><title>SearchesController</title>
<ellipse fill="none" stroke="black" cx="2219.48" cy="-626.933" rx="103.945" ry="18.3848"/>
<text text-anchor="middle" x="2219.48" y="-623.333" font-family="Times Roman,serif" font-size="14.00">SearchesController</text>
</g>
<!-- TestsController -->
<g id="node10" class="node"><title>TestsController</title>
<ellipse fill="none" stroke="black" cx="1038.85" cy="-515.669" rx="84.8528" ry="18.3848"/>
<text text-anchor="middle" x="1038.85" y="-512.069" font-family="Times Roman,serif" font-size="14.00">TestsController</text>
</g>
<!-- IphWeaponsController -->
<g id="node11" class="node"><title>IphWeaponsController</title>
<ellipse fill="none" stroke="black" cx="1757.96" cy="-187.725" rx="120.208" ry="18.3848"/>
<text text-anchor="middle" x="1757.96" y="-184.125" font-family="Times Roman,serif" font-size="14.00">IphWeaponsController</text>
</g>
<!-- PlacesController -->
<g id="node12" class="node"><title>PlacesController</title>
<ellipse fill="none" stroke="black" cx="1313.16" cy="-475.2" rx="90.0096" ry="18.3848"/>
<text text-anchor="middle" x="1313.16" y="-471.6" font-family="Times Roman,serif" font-size="14.00">PlacesController</text>
</g>
<!-- ApplicationController -->
<g id="node13" class="node"><title>ApplicationController</title>
<ellipse fill="none" stroke="black" cx="1452.14" cy="-870.841" rx="113.844" ry="18.3848"/>
<text text-anchor="middle" x="1452.14" y="-867.241" font-family="Times Roman,serif" font-size="14.00">ApplicationController</text>
</g>
<!-- ApplicationController&#45;&gt;RolesController -->
<g id="edge2" class="edge"><title>ApplicationController&#45;&gt;RolesController</title>
<path fill="none" stroke="black" d="M1362.28,-859.418C1259.49,-845.983 1086.24,-822.224 938.107,-796.456 660.03,-748.084 330.458,-676.45 198.005,-647.067"/>
</g>
<!-- ApplicationController&#45;&gt;ColaborationCollectionController -->
<g id="edge4" class="edge"><title>ApplicationController&#45;&gt;ColaborationCollectionController</title>
<path fill="none" stroke="black" d="M1551.28,-861.652C1620.64,-855.223 1713.97,-846.573 1789.14,-839.606"/>
</g>
<!-- ApplicationController&#45;&gt;EventsCollectionsController -->
<g id="edge6" class="edge"><title>ApplicationController&#45;&gt;EventsCollectionsController</title>
<path fill="none" stroke="black" d="M1454.11,-852.178C1456.75,-819.705 1458.67,-751.408 1435.38,-700.444 1378,-574.882 1288.01,-596.139 1221.56,-475.132 1167.55,-376.777 1151.25,-239.532 1146.96,-190.135"/>
</g>
<!-- ApplicationController&#45;&gt;IphDrugsController -->
<g id="edge8" class="edge"><title>ApplicationController&#45;&gt;IphDrugsController</title>
<path fill="none" stroke="black" d="M1431.15,-889.119C1381.83,-932.081 1254.73,-1042.87 1148.82,-1135.79 1011.65,-1256.14 847.093,-1401.49 790.207,-1451.76"/>
</g>
<!-- ApplicationController&#45;&gt;WeaponTypesController -->
<g id="edge10" class="edge"><title>ApplicationController&#45;&gt;WeaponTypesController</title>
<path fill="none" stroke="black" d="M1478.25,-852.618C1516.54,-825.904 1587.49,-776.394 1625.78,-749.678"/>
</g>
<!-- ApplicationController&#45;&gt;WelcomeController -->
<g id="edge12" class="edge"><title>ApplicationController&#45;&gt;WelcomeController</title>
<path fill="none" stroke="black" d="M1343.12,-865.43C1195.59,-858.108 934.454,-845.147 791.556,-838.055"/>
</g>
<!-- ApplicationController&#45;&gt;UsersController -->
<g id="edge14" class="edge"><title>ApplicationController&#45;&gt;UsersController</title>
<path fill="none" stroke="black" d="M1417.56,-853.07C1235.03,-759.248 385.027,-322.349 205.326,-229.983"/>
</g>
<!-- ApplicationController&#45;&gt;SearchesController -->
<g id="edge16" class="edge"><title>ApplicationController&#45;&gt;SearchesController</title>
<path fill="none" stroke="black" d="M1503.98,-854.364C1644.03,-809.845 2028.84,-687.53 2168.22,-643.227"/>
</g>
<!-- ApplicationController&#45;&gt;TestsController -->
<g id="edge18" class="edge"><title>ApplicationController&#45;&gt;TestsController</title>
<path fill="none" stroke="black" d="M1410.36,-853.502C1350.3,-827.077 1238.42,-772.106 1162.19,-700.111 1107.99,-648.935 1065.26,-569.747 1047.63,-534.131"/>
</g>
<!-- ApplicationController&#45;&gt;IphWeaponsController -->
<g id="edge20" class="edge"><title>ApplicationController&#45;&gt;IphWeaponsController</title>
<path fill="none" stroke="black" d="M1461.12,-852.105C1474.19,-825.11 1499.5,-773.855 1523.3,-731.434 1575.44,-638.493 1604.21,-623.907 1648.73,-527.085 1702.64,-409.836 1741.19,-258.465 1753.65,-206.329"/>
</g>
<!-- ApplicationController&#45;&gt;PlacesController -->
<g id="edge22" class="edge"><title>ApplicationController&#45;&gt;PlacesController</title>
<path fill="none" stroke="black" d="M1452.69,-852.215C1453.11,-820.368 1451.72,-753.73 1435.38,-700.444 1410,-617.714 1352.64,-530.674 1326.54,-493.629"/>
</g>
<!-- IphsController -->
<g id="node14" class="node"><title>IphsController</title>
<ellipse fill="none" stroke="black" cx="2738.51" cy="-824.579" rx="80.1095" ry="18.3848"/>
<text text-anchor="middle" x="2738.51" y="-820.979" font-family="Times Roman,serif" font-size="14.00">IphsController</text>
</g>
<!-- ApplicationController&#45;&gt;IphsController -->
<g id="edge24" class="edge"><title>ApplicationController&#45;&gt;IphsController</title>
<path fill="none" stroke="black" d="M1563.49,-866.837C1818.31,-857.672 2438.86,-835.356 2659.25,-827.43"/>
</g>
<!-- ColaborationsController -->
<g id="node15" class="node"><title>ColaborationsController</title>
<ellipse fill="none" stroke="black" cx="2222.8" cy="-1024.1" rx="126.78" ry="18.3848"/>
<text text-anchor="middle" x="2222.8" y="-1020.5" font-family="Times Roman,serif" font-size="14.00">ColaborationsController</text>
</g>
<!-- ApplicationController&#45;&gt;ColaborationsController -->
<g id="edge26" class="edge"><title>ApplicationController&#45;&gt;ColaborationsController</title>
<path fill="none" stroke="black" d="M1524.29,-885.19C1670.22,-914.21 1999.12,-979.615 2147.58,-1009.14"/>
</g>
<!-- PrioritiesController -->
<g id="node16" class="node"><title>PrioritiesController</title>
<ellipse fill="none" stroke="black" cx="1431.22" cy="-1476.55" rx="103.238" ry="18.3848"/>
<text text-anchor="middle" x="1431.22" y="-1472.95" font-family="Times Roman,serif" font-size="14.00">PrioritiesController</text>
</g>
<!-- ApplicationController&#45;&gt;PrioritiesController -->
<g id="edge28" class="edge"><title>ApplicationController&#45;&gt;PrioritiesController</title>
<path fill="none" stroke="black" d="M1454.79,-889.453C1460.43,-933.132 1471.6,-1045.37 1452.02,-1136.06 1450.63,-1142.49 1447.44,-1143.15 1445.91,-1149.55 1418.52,-1263.95 1425.82,-1407.14 1429.62,-1457.77"/>
</g>
<!-- UnitsController -->
<g id="node17" class="node"><title>UnitsController</title>
<ellipse fill="none" stroke="black" cx="1857.8" cy="-534.441" rx="85.0596" ry="18.3848"/>
<text text-anchor="middle" x="1857.8" y="-530.841" font-family="Times Roman,serif" font-size="14.00">UnitsController</text>
</g>
<!-- ApplicationController&#45;&gt;UnitsController -->
<g id="edge30" class="edge"><title>ApplicationController&#45;&gt;UnitsController</title>
<path fill="none" stroke="black" d="M1457.88,-852.131C1467.5,-823.32 1489.21,-767.64 1523.3,-731.434 1608.88,-640.531 1745.76,-578.035 1814.89,-550.433"/>
</g>
<!-- AreasController -->
<g id="node18" class="node"><title>AreasController</title>
<ellipse fill="none" stroke="black" cx="2136.17" cy="-201.373" rx="87.1802" ry="18.3848"/>
<text text-anchor="middle" x="2136.17" y="-197.773" font-family="Times Roman,serif" font-size="14.00">AreasController</text>
</g>
<!-- ApplicationController&#45;&gt;AreasController -->
<g id="edge32" class="edge"><title>ApplicationController&#45;&gt;AreasController</title>
<path fill="none" stroke="black" d="M1459.07,-851.923C1469.95,-823.803 1492.95,-770.142 1523.3,-731.434 1710.33,-492.846 2016.77,-280.33 2109.05,-219.06"/>
</g>
<!-- WeaponsController -->
<g id="node19" class="node"><title>WeaponsController</title>
<ellipse fill="none" stroke="black" cx="174.051" cy="-1439.55" rx="104.151" ry="18.3848"/>
<text text-anchor="middle" x="174.051" y="-1435.95" font-family="Times Roman,serif" font-size="14.00">WeaponsController</text>
</g>
<!-- ApplicationController&#45;&gt;WeaponsController -->
<g id="edge34" class="edge"><title>ApplicationController&#45;&gt;WeaponsController</title>
<path fill="none" stroke="black" d="M1407.71,-887.884C1319.1,-922.088 1114.34,-1002.18 945.117,-1076.25 658.067,-1201.91 318.339,-1368.25 209.471,-1422"/>
</g>
<!-- BackupFilesController -->
<g id="node20" class="node"><title>BackupFilesController</title>
<ellipse fill="none" stroke="black" cx="117.5" cy="-1009.77" rx="116.172" ry="18.3848"/>
<text text-anchor="middle" x="117.5" y="-1006.17" font-family="Times Roman,serif" font-size="14.00">BackupFilesController</text>
</g>
<!-- ApplicationController&#45;&gt;BackupFilesController -->
<g id="edge36" class="edge"><title>ApplicationController&#45;&gt;BackupFilesController</title>
<path fill="none" stroke="black" d="M1349.45,-878.944C1290.57,-883.748 1215.29,-890.154 1148.39,-896.667 802.311,-930.36 391.701,-977.586 210.881,-998.751"/>
</g>
<!-- EventsController -->
<g id="node21" class="node"><title>EventsController</title>
<ellipse fill="none" stroke="black" cx="654.561" cy="-1117.98" rx="92.839" ry="18.3848"/>
<text text-anchor="middle" x="654.561" y="-1114.38" font-family="Times Roman,serif" font-size="14.00">EventsController</text>
</g>
<!-- ApplicationController&#45;&gt;EventsController -->
<g id="edge38" class="edge"><title>ApplicationController&#45;&gt;EventsController</title>
<path fill="none" stroke="black" d="M1404.58,-887.753C1373.29,-898.746 1331.39,-913.218 1294.11,-925.247 1077.8,-995.045 817.822,-1070.94 707.841,-1102.68"/>
</g>
<!-- CriminalGroupsController -->
<g id="node22" class="node"><title>CriminalGroupsController</title>
<ellipse fill="none" stroke="black" cx="1298.78" cy="-700.278" rx="135.057" ry="18.3848"/>
<text text-anchor="middle" x="1298.78" y="-696.678" font-family="Times Roman,serif" font-size="14.00">CriminalGroupsController</text>
</g>
<!-- ApplicationController&#45;&gt;CriminalGroupsController -->
<g id="edge40" class="edge"><title>ApplicationController&#45;&gt;CriminalGroupsController</title>
<path fill="none" stroke="black" d="M1435.43,-852.263C1405.94,-819.454 1344.95,-751.626 1315.46,-718.833"/>
</g>
<!-- PhonesController -->
<g id="node23" class="node"><title>PhonesController</title>
<ellipse fill="none" stroke="black" cx="680.313" cy="-544.149" rx="94.9596" ry="18.3848"/>
<text text-anchor="middle" x="680.313" y="-540.549" font-family="Times Roman,serif" font-size="14.00">PhonesController</text>
</g>
<!-- ApplicationController&#45;&gt;PhonesController -->
<g id="edge42" class="edge"><title>ApplicationController&#45;&gt;PhonesController</title>
<path fill="none" stroke="black" d="M1411.19,-853.507C1277.18,-796.785 852.749,-617.136 720.237,-561.047"/>
</g>
<!-- IphVehiclesController -->
<g id="node24" class="node"><title>IphVehiclesController</title>
<ellipse fill="none" stroke="black" cx="1743.9" cy="-1470.11" rx="114.051" ry="18.3848"/>
<text text-anchor="middle" x="1743.9" y="-1466.51" font-family="Times Roman,serif" font-size="14.00">IphVehiclesController</text>
</g>
<!-- ApplicationController&#45;&gt;IphVehiclesController -->
<g id="edge44" class="edge"><title>ApplicationController&#45;&gt;IphVehiclesController</title>
<path fill="none" stroke="black" d="M1470.47,-889.327C1511.36,-931.627 1610.58,-1040.29 1663.11,-1149.78 1714.58,-1257.08 1735.69,-1400.89 1741.84,-1451.53"/>
</g>
<!-- DeviseController -->
<g id="node25" class="node"><title>DeviseController</title>
<ellipse fill="none" stroke="black" cx="2133.25" cy="-1451.01" rx="92.839" ry="18.3848"/>
<text text-anchor="middle" x="2133.25" y="-1447.41" font-family="Times Roman,serif" font-size="14.00">DeviseController</text>
</g>
<!-- ApplicationController&#45;&gt;DeviseController -->
<g id="edge46" class="edge"><title>ApplicationController&#45;&gt;DeviseController</title>
<path fill="none" stroke="black" d="M1473.65,-889.163C1575.74,-976.128 2010.71,-1346.63 2112.08,-1432.98"/>
</g>
<!-- OfficesController -->
<g id="node26" class="node"><title>OfficesController</title>
<ellipse fill="none" stroke="black" cx="1133.18" cy="-1455.15" rx="92.839" ry="18.3848"/>
<text text-anchor="middle" x="1133.18" y="-1451.55" font-family="Times Roman,serif" font-size="14.00">OfficesController</text>
</g>
<!-- ApplicationController&#45;&gt;OfficesController -->
<g id="edge48" class="edge"><title>ApplicationController&#45;&gt;OfficesController</title>
<path fill="none" stroke="black" d="M1456.8,-889.463C1467.01,-934.105 1487.7,-1049.92 1452.02,-1136.06 1420.25,-1212.75 1222.44,-1381.25 1155.39,-1436.9"/>
</g>
<!-- VehiclesController -->
<g id="node27" class="node"><title>VehiclesController</title>
<ellipse fill="none" stroke="black" cx="1459.02" cy="-173.527" rx="98.9949" ry="18.3848"/>
<text text-anchor="middle" x="1459.02" y="-169.927" font-family="Times Roman,serif" font-size="14.00">VehiclesController</text>
</g>
<!-- ApplicationController&#45;&gt;VehiclesController -->
<g id="edge50" class="edge"><title>ApplicationController&#45;&gt;VehiclesController</title>
<path fill="none" stroke="black" d="M1452.32,-852.19C1453.3,-753.318 1457.86,-291.25 1458.84,-192.236"/>
</g>
<!-- ColaborationFilesController -->
<g id="node28" class="node"><title>ColaborationFilesController</title>
<ellipse fill="none" stroke="black" cx="2704.04" cy="-1380.32" rx="143.043" ry="18.3848"/>
<text text-anchor="middle" x="2704.04" y="-1376.72" font-family="Times Roman,serif" font-size="14.00">ColaborationFilesController</text>
</g>
<!-- ApplicationController&#45;&gt;ColaborationFilesController -->
<g id="edge52" class="edge"><title>ApplicationController&#45;&gt;ColaborationFilesController</title>
<path fill="none" stroke="black" d="M1475.69,-889.037C1496.98,-905.008 1529.54,-928.277 1559.88,-945.287 1573.54,-952.94 1577.6,-953.614 1592.08,-959.557 1999.04,-1126.59 2499.08,-1307.13 2655.16,-1362.92"/>
</g>
<!-- StatusesController -->
<g id="node29" class="node"><title>StatusesController</title>
<ellipse fill="none" stroke="black" cx="1221.25" cy="-910.957" rx="102.03" ry="18.3848"/>
<text text-anchor="middle" x="1221.25" y="-907.357" font-family="Times Roman,serif" font-size="14.00">StatusesController</text>
</g>
<!-- ApplicationController&#45;&gt;StatusesController -->
<g id="edge54" class="edge"><title>ApplicationController&#45;&gt;StatusesController</title>
<path fill="none" stroke="black" d="M1374.29,-884.367C1348.76,-888.802 1320.48,-893.716 1295.25,-898.101"/>
</g>
<!-- AnalystsController -->
<g id="node30" class="node"><title>AnalystsController</title>
<ellipse fill="none" stroke="black" cx="1012.06" cy="-782.38" rx="101.823" ry="18.3848"/>
<text text-anchor="middle" x="1012.06" y="-778.78" font-family="Times Roman,serif" font-size="14.00">AnalystsController</text>
</g>
<!-- ApplicationController&#45;&gt;AnalystsController -->
<g id="edge56" class="edge"><title>ApplicationController&#45;&gt;AnalystsController</title>
<path fill="none" stroke="black" d="M1380.45,-856.431C1297.52,-839.761 1161.97,-812.513 1080.46,-796.128"/>
</g>
<!-- LocalitiesController -->
<g id="node31" class="node"><title>LocalitiesController</title>
<ellipse fill="none" stroke="black" cx="2704.19" cy="-269.333" rx="104.86" ry="18.3848"/>
<text text-anchor="middle" x="2704.19" y="-265.733" font-family="Times Roman,serif" font-size="14.00">LocalitiesController</text>
</g>
<!-- ApplicationController&#45;&gt;LocalitiesController -->
<g id="edge58" class="edge"><title>ApplicationController&#45;&gt;LocalitiesController</title>
<path fill="none" stroke="black" d="M1495.02,-853.641C1558.07,-828.122 1679.3,-778.205 1780.5,-731.467 2133.35,-568.507 2550.86,-350.209 2670.59,-287.1"/>
</g>
<!-- IphPeopleController -->
<g id="node32" class="node"><title>IphPeopleController</title>
<ellipse fill="none" stroke="black" cx="1554.51" cy="-1149.66" rx="106.98" ry="18.3848"/>
<text text-anchor="middle" x="1554.51" y="-1146.06" font-family="Times Roman,serif" font-size="14.00">IphPeopleController</text>
</g>
<!-- ApplicationController&#45;&gt;IphPeopleController -->
<g id="edge60" class="edge"><title>ApplicationController&#45;&gt;IphPeopleController</title>
<path fill="none" stroke="black" d="M1459.01,-889.568C1477.66,-940.362 1529.05,-1080.32 1547.66,-1131.02"/>
</g>
<!-- IphObjectsController -->
<g id="node33" class="node"><title>IphObjectsController</title>
<ellipse fill="none" stroke="black" cx="1672.48" cy="-945.484" rx="111.222" ry="18.3848"/>
<text text-anchor="middle" x="1672.48" y="-941.884" font-family="Times Roman,serif" font-size="14.00">IphObjectsController</text>
</g>
<!-- ApplicationController&#45;&gt;IphObjectsController -->
<g id="edge62" class="edge"><title>ApplicationController&#45;&gt;IphObjectsController</title>
<path fill="none" stroke="black" d="M1501.59,-887.592C1537.87,-899.885 1586.94,-916.509 1623.19,-928.788"/>
</g>
<!-- CrimesController -->
<g id="node34" class="node"><title>CrimesController</title>
<ellipse fill="none" stroke="black" cx="764.036" cy="-182.988" rx="92.839" ry="18.3848"/>
<text text-anchor="middle" x="764.036" y="-179.388" font-family="Times Roman,serif" font-size="14.00">CrimesController</text>
</g>
<!-- ApplicationController&#45;&gt;CrimesController -->
<g id="edge64" class="edge"><title>ApplicationController&#45;&gt;CrimesController</title>
<path fill="none" stroke="black" d="M1414.59,-853.201C1323.59,-808.743 1088.72,-683.56 952.254,-515.623 864.799,-407.998 794.691,-254.397 771.896,-201.624"/>
</g>
<!-- DrugsController -->
<g id="node35" class="node"><title>DrugsController</title>
<ellipse fill="none" stroke="black" cx="1008.54" cy="-1090.61" rx="89.0955" ry="18.3848"/>
<text text-anchor="middle" x="1008.54" y="-1087.01" font-family="Times Roman,serif" font-size="14.00">DrugsController</text>
</g>
<!-- ApplicationController&#45;&gt;DrugsController -->
<g id="edge66" class="edge"><title>ApplicationController&#45;&gt;DrugsController</title>
<path fill="none" stroke="black" d="M1416.59,-888.454C1333.12,-929.807 1125.44,-1032.69 1043.03,-1073.52"/>
</g>
<!-- TownshipsController -->
<g id="node36" class="node"><title>TownshipsController</title>
<ellipse fill="none" stroke="black" cx="1866.88" cy="-1128.33" rx="109.81" ry="18.3848"/>
<text text-anchor="middle" x="1866.88" y="-1124.73" font-family="Times Roman,serif" font-size="14.00">TownshipsController</text>
</g>
<!-- ApplicationController&#45;&gt;TownshipsController -->
<g id="edge68" class="edge"><title>ApplicationController&#45;&gt;TownshipsController</title>
<path fill="none" stroke="black" d="M1477.5,-889.079C1499.13,-904.46 1531.19,-926.85 1559.88,-945.287 1658.81,-1008.86 1779.5,-1078.61 1835.52,-1110.56"/>
</g>
<!-- PeopleController -->
<g id="node37" class="node"><title>PeopleController</title>
<ellipse fill="none" stroke="black" cx="1555.13" cy="-526.921" rx="91.9239" ry="18.3848"/>
<text text-anchor="middle" x="1555.13" y="-523.321" font-family="Times Roman,serif" font-size="14.00">PeopleController</text>
</g>
<!-- ApplicationController&#45;&gt;PeopleController -->
<g id="edge70" class="edge"><title>ApplicationController&#45;&gt;PeopleController</title>
<path fill="none" stroke="black" d="M1457.68,-852.35C1475.56,-792.635 1531.64,-605.349 1549.57,-545.503"/>
</g>
<!-- ColaborationAreasController -->
<g id="node38" class="node"><title>ColaborationAreasController</title>
<ellipse fill="none" stroke="black" cx="1300.42" cy="-1135.92" rx="149.907" ry="18.3848"/>
<text text-anchor="middle" x="1300.42" y="-1132.32" font-family="Times Roman,serif" font-size="14.00">ColaborationAreasController</text>
</g>
<!-- ApplicationController&#45;&gt;ColaborationAreasController -->
<g id="edge72" class="edge"><title>ApplicationController&#45;&gt;ColaborationAreasController</title>
<path fill="none" stroke="black" d="M1441.47,-889.481C1413.61,-938.153 1338.92,-1068.66 1311.08,-1117.31"/>
</g>
</g>
</svg>
