<?xml version="1.0" encoding="UTF-8" standalone="no"?>
<!DOCTYPE svg PUBLIC "-//W3C//DTD SVG 1.1//EN"
 "http://www.w3.org/Graphics/SVG/1.1/DTD/svg11.dtd">
<!-- Generated by graphviz version 2.26.3 (20100126.1600)
 -->
<!-- Title: models_diagram Pages: 1 -->
<svg width="3734pt" height="842pt"
 viewBox="0.00 0.00 3734.00 842.00" xmlns="http://www.w3.org/2000/svg" xmlns:xlink="http://www.w3.org/1999/xlink">
<g id="graph1" class="graph" transform="scale(1 1) rotate(0) translate(4 838)">
<title>models_diagram</title>
<polygon fill="white" stroke="white" points="-4,5 -4,-838 3731,-838 3731,5 -4,5"/>
<!-- _diagram_info -->
<g id="node1" class="node"><title>_diagram_info</title>
<text text-anchor="start" x="1260" y="-817.8" font-family="Times Roman,serif" font-size="13.00">Models diagram</text>
<text text-anchor="start" x="1260" y="-800.8" font-family="Times Roman,serif" font-size="13.00">Date: Dec 05 2013 &#45; 13:48</text>
<text text-anchor="start" x="1260" y="-783.8" font-family="Times Roman,serif" font-size="13.00">Migration version: 20131204011506</text>
<text text-anchor="start" x="1260" y="-766.8" font-family="Times Roman,serif" font-size="13.00">Generated by RailRoady 1.1.1</text>
<text text-anchor="start" x="1260" y="-749.8" font-family="Times Roman,serif" font-size="13.00">http://railroady.prestonlee.com</text>
</g>
<!-- OfficeVehicle -->
<g id="node2" class="node"><title>OfficeVehicle</title>
<ellipse fill="none" stroke="black" cx="1609" cy="-389" rx="74.2462" ry="18.3848"/>
<text text-anchor="middle" x="1609" y="-385.4" font-family="Times Roman,serif" font-size="14.00">OfficeVehicle</text>
</g>
<!-- User -->
<g id="node3" class="node"><title>User</title>
<ellipse fill="none" stroke="black" cx="734" cy="-537" rx="33.9411" ry="18.3848"/>
<text text-anchor="middle" x="734" y="-533.4" font-family="Times Roman,serif" font-size="14.00">User</text>
</g>
<!-- Iph -->
<g id="node23" class="node"><title>Iph</title>
<ellipse fill="none" stroke="black" cx="584" cy="-463" rx="27" ry="18.3848"/>
<text text-anchor="middle" x="584" y="-459.4" font-family="Times Roman,serif" font-size="14.00">Iph</text>
</g>
<!-- User&#45;&gt;Iph -->
<g id="edge6" class="edge"><title>User&#45;&gt;Iph</title>
<path fill="none" stroke="#02fd3b" d="M701.144,-520.791C675.591,-508.185 640.374,-490.811 615.241,-478.412"/>
<ellipse fill="none" stroke="#02fd3b" cx="704.967" cy="-522.677" rx="4.00002" ry="4.00002"/>
<polygon fill="#02fd3b" stroke="#02fd3b" points="615.111,-478.348 608.134,-469.888 610.627,-476.136 606.143,-473.924 606.143,-473.924 606.143,-473.924 610.627,-476.136 604.152,-477.96 615.111,-478.348 615.111,-478.348"/>
</g>
<!-- Colaboration -->
<g id="node54" class="node"><title>Colaboration</title>
<ellipse fill="none" stroke="black" cx="1428" cy="-167" rx="73.0388" ry="18.3848"/>
<text text-anchor="middle" x="1428" y="-163.4" font-family="Times Roman,serif" font-size="14.00">Colaboration</text>
</g>
<!-- User&#45;&gt;Colaboration -->
<g id="edge4" class="edge"><title>User&#45;&gt;Colaboration</title>
<path fill="none" stroke="#7db328" d="M743.72,-510.929C769.306,-446.709 845.398,-281.782 972,-222 1036.39,-191.593 1232.9,-176.843 1345.83,-170.704"/>
<ellipse fill="none" stroke="#7db328" cx="742.174" cy="-514.876" rx="4.00001" ry="4.00001"/>
<polygon fill="#7db328" stroke="#7db328" points="1345.83,-170.703 1356.06,-174.665 1350.83,-170.437 1355.82,-170.171 1355.82,-170.171 1355.82,-170.171 1350.83,-170.437 1355.58,-165.677 1345.83,-170.703 1345.83,-170.703"/>
</g>
<!-- CriminalWeapon -->
<g id="node4" class="node"><title>CriminalWeapon</title>
<ellipse fill="none" stroke="black" cx="3059" cy="-167" rx="91.9239" ry="18.3848"/>
<text text-anchor="middle" x="3059" y="-163.4" font-family="Times Roman,serif" font-size="14.00">CriminalWeapon</text>
</g>
<!-- IphIphVehicle -->
<g id="node5" class="node"><title>IphIphVehicle</title>
<ellipse fill="none" stroke="black" cx="184" cy="-315" rx="75.8684" ry="18.3848"/>
<text text-anchor="middle" x="184" y="-311.4" font-family="Times Roman,serif" font-size="14.00">IphIphVehicle</text>
</g>
<!-- ColaborationVehicle -->
<g id="node6" class="node"><title>ColaborationVehicle</title>
<ellipse fill="none" stroke="black" cx="1564" cy="-93" rx="108.187" ry="18.3848"/>
<text text-anchor="middle" x="1564" y="-89.4" font-family="Times Roman,serif" font-size="14.00">ColaborationVehicle</text>
</g>
<!-- Person -->
<g id="node7" class="node"><title>Person</title>
<ellipse fill="none" stroke="black" cx="1816" cy="-315" rx="44.0472" ry="18.3848"/>
<text text-anchor="middle" x="1816" y="-311.4" font-family="Times Roman,serif" font-size="14.00">Person</text>
</g>
<!-- Phone -->
<g id="node8" class="node"><title>Phone</title>
<ellipse fill="none" stroke="black" cx="2074" cy="-93" rx="41.9273" ry="18.3848"/>
<text text-anchor="middle" x="2074" y="-89.4" font-family="Times Roman,serif" font-size="14.00">Phone</text>
</g>
<!-- Person&#45;&gt;Phone -->
<g id="edge26" class="edge"><title>Person&#45;&gt;Phone</title>
<path fill="none" stroke="#8d5c23" d="M1818.95,-286.304C1822.25,-266.451 1829.24,-240.396 1844,-222 1892.44,-161.609 1977.24,-124.715 2029.23,-106.625"/>
<polygon fill="#8d5c23" stroke="#8d5c23" points="1818.93,-286.43 1813.05,-295.684 1818.21,-291.379 1817.5,-296.327 1817.5,-296.327 1817.5,-296.327 1818.21,-291.379 1821.95,-296.971 1818.93,-286.43 1818.93,-286.43"/>
<polygon fill="#8d5c23" stroke="#8d5c23" points="2029.39,-106.573 2040.3,-107.622 2034.12,-104.967 2038.86,-103.361 2038.86,-103.361 2038.86,-103.361 2034.12,-104.967 2037.41,-99.0994 2029.39,-106.573 2029.39,-106.573"/>
</g>
<!-- Vehicle -->
<g id="node16" class="node"><title>Vehicle</title>
<ellipse fill="none" stroke="black" cx="1977" cy="-463" rx="45.9619" ry="18.3848"/>
<text text-anchor="middle" x="1977" y="-459.4" font-family="Times Roman,serif" font-size="14.00">Vehicle</text>
</g>
<!-- Person&#45;&gt;Vehicle -->
<g id="edge16" class="edge"><title>Person&#45;&gt;Vehicle</title>
<path fill="none" stroke="#56c281" d="M1840.55,-337.572C1870.44,-365.047 1920.68,-411.231 1951.15,-439.234"/>
<ellipse fill="none" stroke="#56c281" cx="1837.45" cy="-334.714" rx="4.00002" ry="4.00002"/>
<polygon fill="#56c281" stroke="#56c281" points="1951.17,-439.255 1955.49,-449.335 1954.85,-442.639 1958.53,-446.023 1958.53,-446.023 1958.53,-446.023 1954.85,-442.639 1961.58,-442.71 1951.17,-439.255 1951.17,-439.255"/>
</g>
<!-- EventPerson -->
<g id="node18" class="node"><title>EventPerson</title>
<ellipse fill="none" stroke="black" cx="1959" cy="-241" rx="73.0388" ry="18.3848"/>
<text text-anchor="middle" x="1959" y="-237.4" font-family="Times Roman,serif" font-size="14.00">EventPerson</text>
</g>
<!-- Person&#45;&gt;EventPerson -->
<g id="edge20" class="edge"><title>Person&#45;&gt;EventPerson</title>
<path fill="none" stroke="#e47fbc" d="M1851.14,-296.814C1871.24,-286.413 1896.57,-273.309 1917.62,-262.412"/>
<ellipse fill="none" stroke="#e47fbc" cx="1847.46" cy="-298.718" rx="4.00002" ry="4.00002"/>
<polygon fill="#e47fbc" stroke="#e47fbc" points="1917.78,-262.331 1928.73,-261.732 1922.22,-260.033 1926.66,-257.735 1926.66,-257.735 1926.66,-257.735 1922.22,-260.033 1924.59,-253.739 1917.78,-262.331 1917.78,-262.331"/>
</g>
<!-- PersonPhone -->
<g id="node20" class="node"><title>PersonPhone</title>
<ellipse fill="none" stroke="black" cx="1750" cy="-19" rx="75.1594" ry="18.3848"/>
<text text-anchor="middle" x="1750" y="-15.4" font-family="Times Roman,serif" font-size="14.00">PersonPhone</text>
</g>
<!-- Person&#45;&gt;PersonPhone -->
<g id="edge24" class="edge"><title>Person&#45;&gt;PersonPhone</title>
<path fill="none" stroke="#9ae3c3" d="M1810.06,-288.373C1797.65,-232.698 1769.05,-104.416 1756.31,-47.3103"/>
<ellipse fill="none" stroke="#9ae3c3" cx="1811" cy="-292.58" rx="4.00001" ry="4.00001"/>
<polygon fill="#9ae3c3" stroke="#9ae3c3" points="1756.3,-47.2694 1758.52,-36.5298 1755.22,-42.3893 1754.13,-37.5091 1754.13,-37.5091 1754.13,-37.5091 1755.22,-42.3893 1749.73,-38.4885 1756.3,-47.2694 1756.3,-47.2694"/>
</g>
<!-- Weapon -->
<g id="node38" class="node"><title>Weapon</title>
<ellipse fill="none" stroke="black" cx="2139" cy="-241" rx="51.1176" ry="18.3848"/>
<text text-anchor="middle" x="2139" y="-237.4" font-family="Times Roman,serif" font-size="14.00">Weapon</text>
</g>
<!-- Person&#45;&gt;Weapon -->
<g id="edge18" class="edge"><title>Person&#45;&gt;Weapon</title>
<path fill="none" stroke="#7e9ad4" d="M1862.76,-304.288C1921.92,-290.733 2023.58,-267.443 2085.7,-253.212"/>
<ellipse fill="none" stroke="#7e9ad4" cx="1858.54" cy="-305.254" rx="4.00001" ry="4.00001"/>
<polygon fill="#7e9ad4" stroke="#7e9ad4" points="2085.94,-253.156 2096.69,-255.309 2090.82,-252.039 2095.69,-250.923 2095.69,-250.923 2095.69,-250.923 2090.82,-252.039 2094.68,-246.536 2085.94,-253.156 2085.94,-253.156"/>
</g>
<!-- OfficePerson -->
<g id="node44" class="node"><title>OfficePerson</title>
<ellipse fill="none" stroke="black" cx="1529" cy="-241" rx="72.832" ry="18.3848"/>
<text text-anchor="middle" x="1529" y="-237.4" font-family="Times Roman,serif" font-size="14.00">OfficePerson</text>
</g>
<!-- Person&#45;&gt;OfficePerson -->
<g id="edge22" class="edge"><title>Person&#45;&gt;OfficePerson</title>
<path fill="none" stroke="#b950b2" d="M1770.46,-303.258C1721.73,-290.694 1644.17,-270.696 1590.15,-256.767"/>
<ellipse fill="none" stroke="#b950b2" cx="1774.61" cy="-304.327" rx="4.00001" ry="4.00001"/>
<polygon fill="#b950b2" stroke="#b950b2" points="1590.03,-256.737 1581.47,-249.882 1585.19,-255.488 1580.35,-254.24 1580.35,-254.24 1580.35,-254.24 1585.19,-255.488 1579.23,-258.597 1590.03,-256.737 1590.03,-256.737"/>
</g>
<!-- OfficePhone -->
<g id="node13" class="node"><title>OfficePhone</title>
<ellipse fill="none" stroke="black" cx="2299" cy="-19" rx="70.2092" ry="18.3848"/>
<text text-anchor="middle" x="2299" y="-15.4" font-family="Times Roman,serif" font-size="14.00">OfficePhone</text>
</g>
<!-- Phone&#45;&gt;OfficePhone -->
<g id="edge34" class="edge"><title>Phone&#45;&gt;OfficePhone</title>
<path fill="none" stroke="#26dff4" d="M2115.33,-79.4071C2151.93,-67.3705 2205.58,-49.7263 2245.45,-36.6116"/>
<ellipse fill="none" stroke="#26dff4" cx="2111.48" cy="-80.6717" rx="4.00001" ry="4.00001"/>
<polygon fill="#26dff4" stroke="#26dff4" points="2245.52,-36.5899 2256.42,-37.7404 2250.27,-35.0278 2255.02,-33.4656 2255.02,-33.4656 2255.02,-33.4656 2250.27,-35.0278 2253.61,-29.1909 2245.52,-36.5899 2245.52,-36.5899"/>
</g>
<!-- Phone&#45;&gt;PersonPhone -->
<g id="edge30" class="edge"><title>Phone&#45;&gt;PersonPhone</title>
<path fill="none" stroke="#0f3a4d" d="M2028.55,-82.6187C1972.95,-69.9198 1878.43,-48.3322 1815.12,-33.872"/>
<ellipse fill="none" stroke="#0f3a4d" cx="2032.62" cy="-83.5483" rx="4.00001" ry="4.00001"/>
<polygon fill="#0f3a4d" stroke="#0f3a4d" points="1814.98,-33.8416 1806.23,-27.2279 1810.11,-32.7283 1805.23,-31.6149 1805.23,-31.6149 1805.23,-31.6149 1810.11,-32.7283 1804.23,-36.0019 1814.98,-33.8416 1814.98,-33.8416"/>
</g>
<!-- EventPhone -->
<g id="node31" class="node"><title>EventPhone</title>
<ellipse fill="none" stroke="black" cx="1914" cy="-19" rx="70.9184" ry="18.3848"/>
<text text-anchor="middle" x="1914" y="-15.4" font-family="Times Roman,serif" font-size="14.00">EventPhone</text>
</g>
<!-- Phone&#45;&gt;EventPhone -->
<g id="edge32" class="edge"><title>Phone&#45;&gt;EventPhone</title>
<path fill="none" stroke="#fdd3f3" d="M2037.44,-76.0905C2013.87,-65.1877 1983.07,-50.9447 1958.14,-39.4126"/>
<ellipse fill="none" stroke="#fdd3f3" cx="2041.39" cy="-77.92" rx="4.00002" ry="4.00002"/>
<polygon fill="#fdd3f3" stroke="#fdd3f3" points="1957.97,-39.336 1950.78,-31.0539 1953.43,-37.2371 1948.89,-35.1382 1948.89,-35.1382 1948.89,-35.1382 1953.43,-37.2371 1947,-39.2225 1957.97,-39.336 1957.97,-39.336"/>
</g>
<!-- ColaborationPhone -->
<g id="node43" class="node"><title>ColaborationPhone</title>
<ellipse fill="none" stroke="black" cx="2107" cy="-19" rx="104.151" ry="18.3848"/>
<text text-anchor="middle" x="2107" y="-15.4" font-family="Times Roman,serif" font-size="14.00">ColaborationPhone</text>
</g>
<!-- Phone&#45;&gt;ColaborationPhone -->
<g id="edge36" class="edge"><title>Phone&#45;&gt;ColaborationPhone</title>
<path fill="none" stroke="#f15d4c" d="M2085.51,-67.1947C2088.43,-60.6457 2091.58,-53.5801 2094.54,-46.9309"/>
<ellipse fill="none" stroke="#f15d4c" cx="2083.79" cy="-71.0546" rx="4.00002" ry="4.00002"/>
<polygon fill="#f15d4c" stroke="#f15d4c" points="2094.63,-46.7287 2102.82,-39.4285 2096.67,-42.1622 2098.71,-37.5957 2098.71,-37.5957 2098.71,-37.5957 2096.67,-42.1622 2094.6,-35.7629 2094.63,-46.7287 2094.63,-46.7287"/>
</g>
<!-- IphIphDrug -->
<g id="node9" class="node"><title>IphIphDrug</title>
<ellipse fill="none" stroke="black" cx="425" cy="-685" rx="67.1751" ry="18.3848"/>
<text text-anchor="middle" x="425" y="-681.4" font-family="Times Roman,serif" font-size="14.00">IphIphDrug</text>
</g>
<!-- IphObject -->
<g id="node10" class="node"><title>IphObject</title>
<ellipse fill="none" stroke="black" cx="378" cy="-389" rx="58.1882" ry="18.3848"/>
<text text-anchor="middle" x="378" y="-385.4" font-family="Times Roman,serif" font-size="14.00">IphObject</text>
</g>
<!-- IphIphObject -->
<g id="node36" class="node"><title>IphIphObject</title>
<ellipse fill="none" stroke="black" cx="355" cy="-315" rx="73.0388" ry="18.3848"/>
<text text-anchor="middle" x="355" y="-311.4" font-family="Times Roman,serif" font-size="14.00">IphIphObject</text>
</g>
<!-- IphObject&#45;&gt;IphIphObject -->
<g id="edge42" class="edge"><title>IphObject&#45;&gt;IphIphObject</title>
<path fill="none" stroke="#659316" d="M369.793,-362.596C367.842,-356.318 365.753,-349.595 363.777,-343.239"/>
<ellipse fill="none" stroke="#659316" cx="371.009" cy="-366.507" rx="4.00001" ry="4.00001"/>
<polygon fill="#659316" stroke="#659316" points="363.77,-343.217 365.099,-332.332 362.286,-338.442 360.802,-333.667 360.802,-333.667 360.802,-333.667 362.286,-338.442 356.505,-335.003 363.77,-343.217 363.77,-343.217"/>
</g>
<!-- Locality -->
<g id="node11" class="node"><title>Locality</title>
<ellipse fill="none" stroke="black" cx="1624" cy="-537" rx="48.9975" ry="18.3848"/>
<text text-anchor="middle" x="1624" y="-533.4" font-family="Times Roman,serif" font-size="14.00">Locality</text>
</g>
<!-- Locality&#45;&gt;Iph -->
<g id="edge48" class="edge"><title>Locality&#45;&gt;Iph</title>
<path fill="none" stroke="#72c61a" d="M1567.56,-532.984C1379.36,-519.593 776.452,-476.694 620.898,-465.625"/>
<ellipse fill="none" stroke="#72c61a" cx="1571.59" cy="-533.271" rx="4" ry="4"/>
<polygon fill="#72c61a" stroke="#72c61a" points="620.869,-465.623 611.214,-460.425 615.882,-465.269 610.895,-464.914 610.895,-464.914 610.895,-464.914 615.882,-465.269 610.575,-469.402 620.869,-465.623 620.869,-465.623"/>
</g>
<!-- Event -->
<g id="node55" class="node"><title>Event</title>
<ellipse fill="none" stroke="black" cx="2107" cy="-389" rx="39.8075" ry="18.3848"/>
<text text-anchor="middle" x="2107" y="-385.4" font-family="Times Roman,serif" font-size="14.00">Event</text>
</g>
<!-- Locality&#45;&gt;Event -->
<g id="edge46" class="edge"><title>Locality&#45;&gt;Event</title>
<path fill="none" stroke="#e872ed" d="M1654.58,-515.952C1687.17,-494.532 1741,-461.996 1792,-444 1882.25,-412.153 1993.81,-398.256 2057.04,-392.576"/>
<ellipse fill="none" stroke="#e872ed" cx="1650.89" cy="-518.398" rx="4.00002" ry="4.00002"/>
<polygon fill="#e872ed" stroke="#e872ed" points="2057.18,-392.565 2067.53,-396.186 2062.16,-392.134 2067.14,-391.702 2067.14,-391.702 2067.14,-391.702 2062.16,-392.134 2066.75,-387.219 2057.18,-392.565 2057.18,-392.565"/>
</g>
<!-- Status -->
<g id="node12" class="node"><title>Status</title>
<ellipse fill="none" stroke="black" cx="1399" cy="-611" rx="43.8406" ry="18.3848"/>
<text text-anchor="middle" x="1399" y="-607.4" font-family="Times Roman,serif" font-size="14.00">Status</text>
</g>
<!-- Status&#45;&gt;Person -->
<g id="edge52" class="edge"><title>Status&#45;&gt;Person</title>
<path fill="none" stroke="#2951fe" d="M1403.3,-584.397C1413.5,-531.424 1444.7,-414.073 1526,-370 1566.15,-348.236 1690.96,-330.117 1763.09,-321.117"/>
<ellipse fill="none" stroke="#2951fe" cx="1402.56" cy="-588.391" rx="4.00001" ry="4.00001"/>
<polygon fill="#2951fe" stroke="#2951fe" points="1763.41,-321.078 1773.88,-324.323 1768.37,-320.467 1773.33,-319.856 1773.33,-319.856 1773.33,-319.856 1768.37,-320.467 1772.78,-315.39 1763.41,-321.078 1763.41,-321.078"/>
</g>
<!-- IphPerson -->
<g id="node34" class="node"><title>IphPerson</title>
<ellipse fill="none" stroke="black" cx="672" cy="-389" rx="60.1041" ry="18.3848"/>
<text text-anchor="middle" x="672" y="-385.4" font-family="Times Roman,serif" font-size="14.00">IphPerson</text>
</g>
<!-- Status&#45;&gt;IphPerson -->
<g id="edge60" class="edge"><title>Status&#45;&gt;IphPerson</title>
<path fill="none" stroke="#fb1e0b" d="M1350.77,-601.627C1258.96,-583.18 1053.3,-538.959 886,-482 824.323,-461.001 755.675,-429.679 713.161,-409.294"/>
<ellipse fill="none" stroke="#fb1e0b" cx="1354.85" cy="-602.442" rx="4.00001" ry="4.00001"/>
<polygon fill="#fb1e0b" stroke="#fb1e0b" points="712.985,-409.209 705.932,-400.813 708.482,-407.038 703.978,-404.866 703.978,-404.866 703.978,-404.866 708.482,-407.038 702.023,-408.919 712.985,-409.209 712.985,-409.209"/>
</g>
<!-- Office -->
<g id="node46" class="node"><title>Office</title>
<ellipse fill="none" stroke="black" cx="1730" cy="-537" rx="39.0967" ry="18.3848"/>
<text text-anchor="middle" x="1730" y="-533.4" font-family="Times Roman,serif" font-size="14.00">Office</text>
</g>
<!-- Status&#45;&gt;Office -->
<g id="edge58" class="edge"><title>Status&#45;&gt;Office</title>
<path fill="none" stroke="#fa2332" d="M1449.44,-604.08C1506.57,-595.582 1602.1,-579.36 1682,-556 1685.14,-555.082 1688.36,-554.04 1691.57,-552.927"/>
<ellipse fill="none" stroke="#fa2332" cx="1445.25" cy="-604.696" rx="4.00001" ry="4.00001"/>
<polygon fill="#fa2332" stroke="#fa2332" points="1691.72,-552.873 1702.66,-553.657 1696.42,-551.152 1701.11,-549.432 1701.11,-549.432 1701.11,-549.432 1696.42,-551.152 1699.56,-545.207 1691.72,-552.873 1691.72,-552.873"/>
</g>
<!-- Status&#45;&gt;Colaboration -->
<g id="edge56" class="edge"><title>Status&#45;&gt;Colaboration</title>
<path fill="none" stroke="#03f8d2" d="M1383.78,-585.696C1343.47,-518.639 1236.91,-340.991 1235,-334 1221.85,-285.99 1205.01,-261.73 1235,-222 1249.83,-202.358 1307.06,-187.646 1355.38,-178.404"/>
<ellipse fill="none" stroke="#03f8d2" cx="1386.07" cy="-589.512" rx="4.00002" ry="4.00002"/>
<polygon fill="#03f8d2" stroke="#03f8d2" points="1355.4,-178.402 1366.05,-180.996 1360.31,-177.487 1365.23,-176.572 1365.23,-176.572 1365.23,-176.572 1360.31,-177.487 1364.4,-172.148 1355.4,-178.402 1355.4,-178.402"/>
</g>
<!-- Status&#45;&gt;Event -->
<g id="edge54" class="edge"><title>Status&#45;&gt;Event</title>
<path fill="none" stroke="#1599fb" d="M1432.47,-592.001C1466.08,-573.01 1519.42,-543.1 1566,-518 1628.65,-484.24 1640.2,-465.621 1708,-444 1829.21,-405.347 1979.67,-393.855 2056.58,-390.441"/>
<ellipse fill="none" stroke="#1599fb" cx="1428.68" cy="-594.147" rx="4.00002" ry="4.00002"/>
<polygon fill="#1599fb" stroke="#1599fb" points="2056.94,-390.426 2067.12,-394.507 2061.93,-390.219 2066.93,-390.011 2066.93,-390.011 2066.93,-390.011 2061.93,-390.219 2066.74,-385.515 2056.94,-390.426 2056.94,-390.426"/>
</g>
<!-- IphWeapon -->
<g id="node14" class="node"><title>IphWeapon</title>
<ellipse fill="none" stroke="black" cx="892" cy="-389" rx="65.9683" ry="18.3848"/>
<text text-anchor="middle" x="892" y="-385.4" font-family="Times Roman,serif" font-size="14.00">IphWeapon</text>
</g>
<!-- EventVehicle -->
<g id="node15" class="node"><title>EventVehicle</title>
<ellipse fill="none" stroke="black" cx="2586" cy="-315" rx="74.2462" ry="18.3848"/>
<text text-anchor="middle" x="2586" y="-311.4" font-family="Times Roman,serif" font-size="14.00">EventVehicle</text>
</g>
<!-- Vehicle&#45;&gt;OfficeVehicle -->
<g id="edge78" class="edge"><title>Vehicle&#45;&gt;OfficeVehicle</title>
<path fill="none" stroke="#26cd30" d="M1935.3,-447.75C1930.84,-446.373 1926.35,-445.09 1922,-444 1823.77,-419.373 1796.53,-426.693 1697,-408 1689.63,-406.616 1681.93,-405.083 1674.29,-403.506"/>
<ellipse fill="none" stroke="#26cd30" cx="1939.44" cy="-449.081" rx="4.00001" ry="4.00001"/>
<polygon fill="#26cd30" stroke="#26cd30" points="1674.09,-403.465 1665.22,-397.012 1669.19,-402.441 1664.3,-401.417 1664.3,-401.417 1664.3,-401.417 1669.19,-402.441 1663.38,-405.821 1674.09,-403.465 1674.09,-403.465"/>
</g>
<!-- Vehicle&#45;&gt;ColaborationVehicle -->
<g id="edge76" class="edge"><title>Vehicle&#45;&gt;ColaborationVehicle</title>
<path fill="none" stroke="#cda930" d="M1941.05,-444.898C1921.04,-434.553 1895.84,-421.071 1874,-408 1823.12,-377.555 1807.01,-373.728 1763,-334 1686.94,-265.346 1614.82,-166.85 1582.2,-119.889"/>
<ellipse fill="none" stroke="#cda930" cx="1944.61" cy="-446.73" rx="4.00002" ry="4.00002"/>
<polygon fill="#cda930" stroke="#cda930" points="1582.08,-119.705 1580.1,-108.918 1579.24,-115.589 1576.4,-111.473 1576.4,-111.473 1576.4,-111.473 1579.24,-115.589 1572.69,-114.028 1582.08,-119.705 1582.08,-119.705"/>
</g>
<!-- Vehicle&#45;&gt;EventVehicle -->
<g id="edge70" class="edge"><title>Vehicle&#45;&gt;EventVehicle</title>
<path fill="none" stroke="#c1800c" d="M2024.56,-451.441C2133.32,-425.011 2400.19,-360.156 2522.68,-330.389"/>
<ellipse fill="none" stroke="#c1800c" cx="2020.38" cy="-452.459" rx="4.00001" ry="4.00001"/>
<polygon fill="#c1800c" stroke="#c1800c" points="2522.94,-330.325 2533.72,-332.336 2527.8,-329.144 2532.66,-327.963 2532.66,-327.963 2532.66,-327.963 2527.8,-329.144 2531.59,-323.591 2522.94,-330.325 2522.94,-330.325"/>
</g>
<!-- CriminalVehicle -->
<g id="node28" class="node"><title>CriminalVehicle</title>
<ellipse fill="none" stroke="black" cx="2849" cy="-389" rx="85.7684" ry="18.3848"/>
<text text-anchor="middle" x="2849" y="-385.4" font-family="Times Roman,serif" font-size="14.00">CriminalVehicle</text>
</g>
<!-- Vehicle&#45;&gt;CriminalVehicle -->
<g id="edge72" class="edge"><title>Vehicle&#45;&gt;CriminalVehicle</title>
<path fill="none" stroke="#e7398f" d="M2030.13,-458.492C2174.96,-446.201 2577.94,-412.003 2758.94,-396.642"/>
<ellipse fill="none" stroke="#e7398f" cx="2026.03" cy="-458.839" rx="4" ry="4"/>
<polygon fill="#e7398f" stroke="#e7398f" points="2759.01,-396.637 2769.35,-400.275 2763.99,-396.214 2768.97,-395.792 2768.97,-395.792 2768.97,-395.792 2763.99,-396.214 2768.59,-391.308 2759.01,-396.637 2759.01,-396.637"/>
</g>
<!-- Vehicle&#45;&gt;Event -->
<g id="edge74" class="edge"><title>Vehicle&#45;&gt;Event</title>
<path fill="none" stroke="#7d53bf" d="M2006.84,-442.537C2025.52,-431.377 2049.64,-417.689 2069.59,-406.948"/>
<ellipse fill="none" stroke="#7d53bf" cx="2003.26" cy="-444.696" rx="4.00002" ry="4.00002"/>
<polygon fill="#7d53bf" stroke="#7d53bf" points="2069.6,-406.942 2080.54,-406.211 2074.01,-404.591 2078.42,-402.24 2078.42,-402.24 2078.42,-402.24 2074.01,-404.591 2076.31,-398.268 2069.6,-406.942 2069.6,-406.942"/>
</g>
<!-- Ability -->
<g id="node17" class="node"><title>Ability</title>
<polygon fill="none" stroke="black" points="3713,-703 3653,-703 3653,-667 3713,-667 3713,-703"/>
<text text-anchor="middle" x="3683" y="-681.4" font-family="Times Roman,serif" font-size="14.00">Ability</text>
</g>
<!-- Township -->
<g id="node19" class="node"><title>Township</title>
<ellipse fill="none" stroke="black" cx="2006" cy="-611" rx="56.7776" ry="18.3848"/>
<text text-anchor="middle" x="2006" y="-607.4" font-family="Times Roman,serif" font-size="14.00">Township</text>
</g>
<!-- Township&#45;&gt;Locality -->
<g id="edge90" class="edge"><title>Township&#45;&gt;Locality</title>
<path fill="none" stroke="#3670f5" d="M1944.28,-603.3C1878.67,-594.472 1772.16,-578.29 1682,-556 1677.95,-554.999 1673.77,-553.856 1669.61,-552.639"/>
<ellipse fill="none" stroke="#3670f5" cx="1948.5" cy="-603.864" rx="4.00001" ry="4.00001"/>
<polygon fill="#3670f5" stroke="#3670f5" points="1669.52,-552.614 1661.27,-545.392 1664.74,-551.155 1659.96,-549.696 1659.96,-549.696 1659.96,-549.696 1664.74,-551.155 1658.65,-554 1669.52,-552.614 1669.52,-552.614"/>
</g>
<!-- Township&#45;&gt;Event -->
<g id="edge86" class="edge"><title>Township&#45;&gt;Event</title>
<path fill="none" stroke="#933dd1" d="M2038.22,-589.993C2053.24,-579.977 2071.24,-567.66 2087,-556 2108.09,-540.396 2167.67,-505.663 2179,-482 2186.3,-466.768 2186.49,-459.139 2179,-444 2171.51,-428.848 2157.62,-416.725 2144.02,-407.759"/>
<ellipse fill="none" stroke="#933dd1" cx="2034.87" cy="-592.21" rx="4.00002" ry="4.00002"/>
<polygon fill="#933dd1" stroke="#933dd1" points="2143.71,-407.569 2137.56,-398.491 2139.46,-404.945 2135.2,-402.322 2135.2,-402.322 2135.2,-402.322 2139.46,-404.945 2132.84,-406.153 2143.71,-407.569 2143.71,-407.569"/>
</g>
<!-- Fullevent -->
<g id="node104" class="node"><title>Fullevent</title>
<ellipse fill="none" stroke="black" cx="2233" cy="-537" rx="56.0679" ry="18.3848"/>
<text text-anchor="middle" x="2233" y="-533.4" font-family="Times Roman,serif" font-size="14.00">Fullevent</text>
</g>
<!-- Township&#45;&gt;Fullevent -->
<g id="edge88" class="edge"><title>Township&#45;&gt;Fullevent</title>
<path fill="none" stroke="#1ba18b" d="M2054.08,-595.326C2092.01,-582.961 2144.74,-565.771 2183.13,-553.258"/>
<ellipse fill="none" stroke="#1ba18b" cx="2050.12" cy="-596.616" rx="4.00001" ry="4.00001"/>
<polygon fill="#1ba18b" stroke="#1ba18b" points="2183.55,-553.121 2194.45,-554.3 2188.3,-551.572 2193.05,-550.022 2193.05,-550.022 2193.05,-550.022 2188.3,-551.572 2191.66,-545.744 2183.55,-553.121 2183.55,-553.121"/>
</g>
<!-- EventDrug -->
<g id="node21" class="node"><title>EventDrug</title>
<ellipse fill="none" stroke="black" cx="2834" cy="-241" rx="65.0538" ry="18.3848"/>
<text text-anchor="middle" x="2834" y="-237.4" font-family="Times Roman,serif" font-size="14.00">EventDrug</text>
</g>
<!-- Unit -->
<g id="node22" class="node"><title>Unit</title>
<ellipse fill="none" stroke="black" cx="1181" cy="-685" rx="32.0265" ry="18.3848"/>
<text text-anchor="middle" x="1181" y="-681.4" font-family="Times Roman,serif" font-size="14.00">Unit</text>
</g>
<!-- Iph&#45;&gt;IphObject -->
<g id="edge108" class="edge"><title>Iph&#45;&gt;IphObject</title>
<path fill="none" stroke="#bfc652" d="M552.095,-451.539C518.414,-439.44 464.927,-420.226 426.121,-406.286"/>
<ellipse fill="none" stroke="#bfc652" cx="556.202" cy="-453.014" rx="4.00001" ry="4.00001"/>
<polygon fill="#bfc652" stroke="#bfc652" points="426.003,-406.244 418.114,-398.628 421.298,-404.554 416.592,-402.863 416.592,-402.863 416.592,-402.863 421.298,-404.554 415.071,-407.098 426.003,-406.244 426.003,-406.244"/>
</g>
<!-- Iph&#45;&gt;IphWeapon -->
<g id="edge106" class="edge"><title>Iph&#45;&gt;IphWeapon</title>
<path fill="none" stroke="#a22141" d="M617.638,-454.918C669.021,-442.573 767.817,-418.836 831.772,-403.47"/>
<ellipse fill="none" stroke="#a22141" cx="613.619" cy="-455.884" rx="4.00001" ry="4.00001"/>
<polygon fill="#a22141" stroke="#a22141" points="832.002,-403.415 842.776,-405.455 836.863,-402.247 841.725,-401.079 841.725,-401.079 841.725,-401.079 836.863,-402.247 840.674,-396.704 832.002,-403.415 832.002,-403.415"/>
</g>
<!-- Iph&#45;&gt;IphPerson -->
<g id="edge100" class="edge"><title>Iph&#45;&gt;IphPerson</title>
<path fill="none" stroke="#37632a" d="M607.756,-443.023C618.788,-433.746 631.991,-422.644 643.551,-412.923"/>
<ellipse fill="none" stroke="#37632a" cx="604.447" cy="-445.806" rx="4.00002" ry="4.00002"/>
<polygon fill="#37632a" stroke="#37632a" points="643.591,-412.89 654.141,-409.898 647.418,-409.672 651.244,-406.454 651.244,-406.454 651.244,-406.454 647.418,-409.672 648.348,-403.009 643.591,-412.89 643.591,-412.89"/>
</g>
<!-- IphVehicle -->
<g id="node51" class="node"><title>IphVehicle</title>
<ellipse fill="none" stroke="black" cx="203" cy="-389" rx="61.0181" ry="18.3848"/>
<text text-anchor="middle" x="203" y="-385.4" font-family="Times Roman,serif" font-size="14.00">IphVehicle</text>
</g>
<!-- Iph&#45;&gt;IphVehicle -->
<g id="edge102" class="edge"><title>Iph&#45;&gt;IphVehicle</title>
<path fill="none" stroke="#4e8f11" d="M549.654,-456.329C485.227,-443.816 345.451,-416.668 264.443,-400.934"/>
<ellipse fill="none" stroke="#4e8f11" cx="553.886" cy="-457.151" rx="4.00001" ry="4.00001"/>
<polygon fill="#4e8f11" stroke="#4e8f11" points="264.198,-400.886 255.24,-394.562 259.29,-399.933 254.382,-398.98 254.382,-398.98 254.382,-398.98 259.29,-399.933 253.524,-403.397 264.198,-400.886 264.198,-400.886"/>
</g>
<!-- IphDrug -->
<g id="node52" class="node"><title>IphDrug</title>
<ellipse fill="none" stroke="black" cx="543" cy="-389" rx="51.1176" ry="18.3848"/>
<text text-anchor="middle" x="543" y="-385.4" font-family="Times Roman,serif" font-size="14.00">IphDrug</text>
</g>
<!-- Iph&#45;&gt;IphDrug -->
<g id="edge104" class="edge"><title>Iph&#45;&gt;IphDrug</title>
<path fill="none" stroke="#ca6afa" d="M570.342,-438.349C566.375,-431.189 562.022,-423.332 557.979,-416.034"/>
<ellipse fill="none" stroke="#ca6afa" cx="572.345" cy="-441.964" rx="4.00002" ry="4.00002"/>
<polygon fill="#ca6afa" stroke="#ca6afa" points="557.921,-415.931 557.011,-405.003 555.498,-411.557 553.075,-407.184 553.075,-407.184 553.075,-407.184 555.498,-411.557 549.139,-409.365 557.921,-415.931 557.921,-415.931"/>
</g>
<!-- BackupFile -->
<g id="node24" class="node"><title>BackupFile</title>
<ellipse fill="none" stroke="black" cx="1340" cy="-315" rx="62.9325" ry="18.3848"/>
<text text-anchor="middle" x="1340" y="-311.4" font-family="Times Roman,serif" font-size="14.00">BackupFile</text>
</g>
<!-- ColaborationArea -->
<g id="node25" class="node"><title>ColaborationArea</title>
<ellipse fill="none" stroke="black" cx="991" cy="-463" rx="96.1665" ry="18.3848"/>
<text text-anchor="middle" x="991" y="-459.4" font-family="Times Roman,serif" font-size="14.00">ColaborationArea</text>
</g>
<!-- ColaborationArea&#45;&gt;Colaboration -->
<g id="edge114" class="edge"><title>ColaborationArea&#45;&gt;Colaboration</title>
<path fill="none" stroke="#475078" d="M1001.36,-436.728C1022.68,-386.332 1076.49,-276.277 1159,-222 1190.11,-201.536 1283.43,-185.566 1351.45,-176.226"/>
<ellipse fill="none" stroke="#475078" cx="999.755" cy="-440.593" rx="4.00002" ry="4.00002"/>
<polygon fill="#475078" stroke="#475078" points="1351.8,-176.178 1362.31,-179.299 1356.76,-175.509 1361.71,-174.84 1361.71,-174.84 1361.71,-174.84 1356.76,-175.509 1361.11,-170.38 1351.8,-176.178 1351.8,-176.178"/>
</g>
<!-- OfficeFile -->
<g id="node26" class="node"><title>OfficeFile</title>
<ellipse fill="none" stroke="black" cx="1857" cy="-463" rx="55.8614" ry="18.3848"/>
<text text-anchor="middle" x="1857" y="-459.4" font-family="Times Roman,serif" font-size="14.00">OfficeFile</text>
</g>
<!-- Analyst -->
<g id="node27" class="node"><title>Analyst</title>
<ellipse fill="none" stroke="black" cx="1731" cy="-611" rx="48.0833" ry="18.3848"/>
<text text-anchor="middle" x="1731" y="-607.4" font-family="Times Roman,serif" font-size="14.00">Analyst</text>
</g>
<!-- Analyst&#45;&gt;User -->
<g id="edge124" class="edge"><title>Analyst&#45;&gt;User</title>
<path fill="none" stroke="#5cc0c7" d="M1675.45,-606.877C1496.14,-593.568 935.151,-551.93 776.299,-540.14"/>
<ellipse fill="none" stroke="#5cc0c7" cx="1679.59" cy="-607.184" rx="4" ry="4"/>
<ellipse fill="#5cc0c7" stroke="#5cc0c7" cx="772.152" cy="-539.832" rx="4" ry="4"/>
</g>
<!-- Analyst&#45;&gt;Office -->
<g id="edge128" class="edge"><title>Analyst&#45;&gt;Office</title>
<path fill="none" stroke="#21a3fe" d="M1730.64,-584.309C1730.56,-578.377 1730.47,-572.061 1730.39,-566.04"/>
<ellipse fill="none" stroke="#21a3fe" cx="1730.69" cy="-588.327" rx="4" ry="4"/>
<polygon fill="#21a3fe" stroke="#21a3fe" points="1730.39,-565.666 1734.75,-555.607 1730.32,-560.667 1730.25,-555.667 1730.25,-555.667 1730.25,-555.667 1730.32,-560.667 1725.75,-555.728 1730.39,-565.666 1730.39,-565.666"/>
</g>
<!-- Analyst&#45;&gt;Colaboration -->
<g id="edge126" class="edge"><title>Analyst&#45;&gt;Colaboration</title>
<path fill="none" stroke="#55f820" d="M1676.01,-604.642C1640.66,-597.928 1595.92,-584.165 1566,-556 1459.29,-455.56 1435.01,-267.354 1429.55,-195.698"/>
<ellipse fill="none" stroke="#55f820" cx="1680.38" cy="-605.421" rx="4.00001" ry="4.00001"/>
<polygon fill="#55f820" stroke="#55f820" points="1429.54,-195.588 1433.34,-185.301 1429.2,-190.6 1428.85,-185.612 1428.85,-185.612 1428.85,-185.612 1429.2,-190.6 1424.36,-185.923 1429.54,-195.588 1429.54,-195.588"/>
</g>
<!-- Analyst&#45;&gt;Event -->
<g id="edge120" class="edge"><title>Analyst&#45;&gt;Event</title>
<path fill="none" stroke="#aafd91" d="M1779.02,-598.332C1841.76,-580.107 1952.92,-541.935 2032,-482 2056.19,-463.666 2077.23,-435.902 2090.82,-415.481"/>
<ellipse fill="none" stroke="#aafd91" cx="1775.08" cy="-599.459" rx="4.00001" ry="4.00001"/>
<polygon fill="#aafd91" stroke="#aafd91" points="2090.91,-415.343 2100.13,-409.399 2093.63,-411.147 2096.35,-406.952 2096.35,-406.952 2096.35,-406.952 2093.63,-411.147 2092.57,-404.504 2090.91,-415.343 2090.91,-415.343"/>
</g>
<!-- Analyst&#45;&gt;Fullevent -->
<g id="edge122" class="edge"><title>Analyst&#45;&gt;Fullevent</title>
<path fill="none" stroke="#4dc2b2" d="M1783.91,-603.201C1877.64,-589.384 2072.32,-560.686 2171.72,-546.033"/>
<ellipse fill="none" stroke="#4dc2b2" cx="1779.95" cy="-603.784" rx="4.00001" ry="4.00001"/>
<polygon fill="#4dc2b2" stroke="#4dc2b2" points="2171.72,-546.033 2182.27,-549.026 2176.67,-545.304 2181.62,-544.574 2181.62,-544.574 2181.62,-544.574 2176.67,-545.304 2180.96,-540.123 2171.72,-546.033 2171.72,-546.033"/>
</g>
<!-- ColaborationFile -->
<g id="node29" class="node"><title>ColaborationFile</title>
<ellipse fill="none" stroke="black" cx="232" cy="-93" rx="89.8026" ry="18.3848"/>
<text text-anchor="middle" x="232" y="-89.4" font-family="Times Roman,serif" font-size="14.00">ColaborationFile</text>
</g>
<!-- Test -->
<g id="node30" class="node"><title>Test</title>
<ellipse fill="none" stroke="black" cx="1624" cy="-685" rx="31.1127" ry="18.3848"/>
<text text-anchor="middle" x="1624" y="-681.4" font-family="Times Roman,serif" font-size="14.00">Test</text>
</g>
<!-- Place -->
<g id="node32" class="node"><title>Place</title>
<ellipse fill="none" stroke="black" cx="2328" cy="-611" rx="36.977" ry="18.3848"/>
<text text-anchor="middle" x="2328" y="-607.4" font-family="Times Roman,serif" font-size="14.00">Place</text>
</g>
<!-- Place&#45;&gt;Event -->
<g id="edge140" class="edge"><title>Place&#45;&gt;Event</title>
<path fill="none" stroke="#096dfb" d="M2327.43,-584.365C2325.05,-546.654 2314.7,-478.459 2272,-444 2231.64,-411.429 2210.13,-424.608 2161,-408 2156.98,-406.639 2152.79,-405.203 2148.61,-403.755"/>
<ellipse fill="none" stroke="#096dfb" cx="2327.63" cy="-588.376" rx="4" ry="4"/>
<polygon fill="#096dfb" stroke="#096dfb" points="2148.38,-403.675 2140.42,-396.134 2143.66,-402.029 2138.94,-400.383 2138.94,-400.383 2138.94,-400.383 2143.66,-402.029 2137.45,-404.632 2148.38,-403.675 2148.38,-403.675"/>
</g>
<!-- Place&#45;&gt;Fullevent -->
<g id="edge142" class="edge"><title>Place&#45;&gt;Fullevent</title>
<path fill="none" stroke="#ea908c" d="M2301.41,-590.284C2289.55,-581.048 2275.52,-570.121 2263.26,-560.573"/>
<ellipse fill="none" stroke="#ea908c" cx="2304.7" cy="-592.848" rx="4.00002" ry="4.00002"/>
<polygon fill="#ea908c" stroke="#ea908c" points="2263,-560.367 2257.87,-550.671 2259.05,-557.294 2255.11,-554.221 2255.11,-554.221 2255.11,-554.221 2259.05,-557.294 2252.34,-557.771 2263,-560.367 2263,-560.367"/>
</g>
<!-- ColaborationPerson -->
<g id="node33" class="node"><title>ColaborationPerson</title>
<ellipse fill="none" stroke="black" cx="946" cy="-93" rx="106.773" ry="18.3848"/>
<text text-anchor="middle" x="946" y="-89.4" font-family="Times Roman,serif" font-size="14.00">ColaborationPerson</text>
</g>
<!-- EventsCollection -->
<g id="node35" class="node"><title>EventsCollection</title>
<ellipse fill="none" stroke="black" cx="2551" cy="-537" rx="92.1303" ry="18.3848"/>
<text text-anchor="middle" x="2551" y="-533.4" font-family="Times Roman,serif" font-size="14.00">EventsCollection</text>
</g>
<!-- EventsCollection&#45;&gt;Person -->
<g id="edge152" class="edge"><title>EventsCollection&#45;&gt;Person</title>
<path fill="none" stroke="#cb624f" d="M2523.55,-511.529C2495.28,-485.517 2454.09,-448.342 2445,-444 2360.35,-403.55 2326.49,-436.175 2237,-408 2199.07,-396.058 2193.99,-381.733 2156,-370 2057.5,-339.584 1937.47,-325.191 1869.58,-319.034"/>
<polygon fill="#cb624f" stroke="#cb624f" points="2523.8,-511.754 2528.1,-521.841 2527.47,-515.143 2531.15,-518.533 2531.15,-518.533 2531.15,-518.533 2527.47,-515.143 2534.2,-515.225 2523.8,-511.754 2523.8,-511.754"/>
<polygon fill="#cb624f" stroke="#cb624f" points="1869.51,-319.028 1859.94,-313.667 1864.53,-318.589 1859.55,-318.15 1859.55,-318.15 1859.55,-318.15 1864.53,-318.589 1859.15,-322.633 1869.51,-319.028 1869.51,-319.028"/>
</g>
<!-- EventsCollection&#45;&gt;EventVehicle -->
<g id="edge156" class="edge"><title>EventsCollection&#45;&gt;EventVehicle</title>
<path fill="none" stroke="#713bc3" d="M2555.17,-510.521C2561.8,-468.484 2574.68,-386.817 2581.5,-343.53"/>
<ellipse fill="none" stroke="#713bc3" cx="2554.55" cy="-514.503" rx="4.00001" ry="4.00001"/>
<polygon fill="#713bc3" stroke="#713bc3" points="2581.5,-343.527 2587.5,-334.35 2582.28,-338.588 2583.06,-333.649 2583.06,-333.649 2583.06,-333.649 2582.28,-338.588 2578.61,-332.948 2581.5,-343.527 2581.5,-343.527"/>
</g>
<!-- EventsCollection&#45;&gt;Vehicle -->
<g id="edge154" class="edge"><title>EventsCollection&#45;&gt;Vehicle</title>
<path fill="none" stroke="#3d73e8" d="M2463.02,-525.658C2342.7,-510.146 2130.44,-482.781 2031.11,-469.975"/>
<polygon fill="#3d73e8" stroke="#3d73e8" points="2463.37,-525.703 2472.71,-531.445 2468.33,-526.342 2473.29,-526.982 2473.29,-526.982 2473.29,-526.982 2468.33,-526.342 2473.86,-522.518 2463.37,-525.703 2463.37,-525.703"/>
<polygon fill="#3d73e8" stroke="#3d73e8" points="2030.91,-469.95 2021.57,-464.209 2025.95,-469.311 2020.99,-468.672 2020.99,-468.672 2020.99,-468.672 2025.95,-469.311 2020.42,-473.135 2030.91,-469.95 2030.91,-469.95"/>
</g>
<!-- EventsCollection&#45;&gt;EventPerson -->
<g id="edge150" class="edge"><title>EventsCollection&#45;&gt;EventPerson</title>
<path fill="none" stroke="#6a4320" d="M2537.49,-511.52C2525.39,-490.834 2505.88,-462.208 2482,-444 2339.81,-335.598 2132.6,-278.277 2026.75,-254.52"/>
<ellipse fill="none" stroke="#6a4320" cx="2539.48" cy="-515.001" rx="4.00002" ry="4.00002"/>
<polygon fill="#6a4320" stroke="#6a4320" points="2026.59,-254.485 2017.8,-247.932 2021.71,-253.405 2016.82,-252.325 2016.82,-252.325 2016.82,-252.325 2021.71,-253.405 2015.85,-256.719 2026.59,-254.485 2026.59,-254.485"/>
</g>
<!-- EventsCollection&#45;&gt;EventDrug -->
<g id="edge158" class="edge"><title>EventsCollection&#45;&gt;EventDrug</title>
<path fill="none" stroke="#7d1e8b" d="M2589.67,-515.095C2604.56,-505.807 2621.27,-494.289 2635,-482 2655.28,-463.848 2766,-326.121 2812.95,-267.396"/>
<ellipse fill="none" stroke="#7d1e8b" cx="2585.94" cy="-517.38" rx="4.00002" ry="4.00002"/>
<polygon fill="#7d1e8b" stroke="#7d1e8b" points="2813.15,-267.141 2822.91,-262.137 2816.27,-263.235 2819.39,-259.328 2819.39,-259.328 2819.39,-259.328 2816.27,-263.235 2815.88,-256.519 2813.15,-267.141 2813.15,-267.141"/>
</g>
<!-- EventsCollection&#45;&gt;Weapon -->
<g id="edge162" class="edge"><title>EventsCollection&#45;&gt;Weapon</title>
<path fill="none" stroke="#087056" d="M2565.76,-509.293C2583.77,-475.86 2615.47,-418.136 2645,-370 2655.06,-353.61 2663.43,-352.405 2669,-334 2673.89,-317.836 2680.31,-308.543 2669,-296 2638.06,-261.682 2332.59,-247.43 2199.95,-242.827"/>
<polygon fill="#087056" stroke="#087056" points="2565.58,-509.641 2556.88,-516.323 2563.21,-514.046 2560.85,-518.452 2560.85,-518.452 2560.85,-518.452 2563.21,-514.046 2564.81,-520.58 2565.58,-509.641 2565.58,-509.641"/>
<polygon fill="#087056" stroke="#087056" points="2199.94,-242.826 2190.1,-237.989 2194.94,-242.656 2189.94,-242.486 2189.94,-242.486 2189.94,-242.486 2194.94,-242.656 2189.79,-246.984 2199.94,-242.826 2199.94,-242.826"/>
</g>
<!-- EventWeapon -->
<g id="node39" class="node"><title>EventWeapon</title>
<ellipse fill="none" stroke="black" cx="2414" cy="-315" rx="79.9031" ry="18.3848"/>
<text text-anchor="middle" x="2414" y="-311.4" font-family="Times Roman,serif" font-size="14.00">EventWeapon</text>
</g>
<!-- EventsCollection&#45;&gt;EventWeapon -->
<g id="edge164" class="edge"><title>EventsCollection&#45;&gt;EventWeapon</title>
<path fill="none" stroke="#548ff6" d="M2545.26,-510.301C2540.46,-491.093 2532.52,-464.984 2521,-444 2499.17,-404.246 2464.25,-365.077 2440.28,-340.52"/>
<ellipse fill="none" stroke="#548ff6" cx="2546.25" cy="-514.446" rx="4.00001" ry="4.00001"/>
<polygon fill="#548ff6" stroke="#548ff6" points="2440.25,-340.492 2436.42,-330.218 2436.74,-336.937 2433.22,-333.383 2433.22,-333.383 2433.22,-333.383 2436.74,-336.937 2430.02,-336.548 2440.25,-340.492 2440.25,-340.492"/>
</g>
<!-- Drug -->
<g id="node53" class="node"><title>Drug</title>
<ellipse fill="none" stroke="black" cx="2866" cy="-315" rx="36.0624" ry="18.3848"/>
<text text-anchor="middle" x="2866" y="-311.4" font-family="Times Roman,serif" font-size="14.00">Drug</text>
</g>
<!-- EventsCollection&#45;&gt;Drug -->
<g id="edge160" class="edge"><title>EventsCollection&#45;&gt;Drug</title>
<path fill="none" stroke="#2cde24" d="M2634.6,-522.956C2661.75,-514.843 2690.2,-502.075 2711,-482 2749.37,-444.972 2718.03,-409.359 2754,-370 2764.69,-358.306 2799.72,-342.022 2827.79,-330.21"/>
<polygon fill="#2cde24" stroke="#2cde24" points="2634.3,-523.039 2623.46,-521.406 2629.49,-524.389 2624.67,-525.739 2624.67,-525.739 2624.67,-525.739 2629.49,-524.389 2625.89,-530.072 2634.3,-523.039 2634.3,-523.039"/>
<polygon fill="#2cde24" stroke="#2cde24" points="2828.14,-330.064 2839.1,-330.389 2832.76,-328.149 2837.38,-326.233 2837.38,-326.233 2837.38,-326.233 2832.76,-328.149 2835.65,-322.076 2828.14,-330.064 2828.14,-330.064"/>
</g>
<!-- OfficeWeapon -->
<g id="node37" class="node"><title>OfficeWeapon</title>
<ellipse fill="none" stroke="black" cx="2111" cy="-167" rx="79.196" ry="18.3848"/>
<text text-anchor="middle" x="2111" y="-163.4" font-family="Times Roman,serif" font-size="14.00">OfficeWeapon</text>
</g>
<!-- Weapon&#45;&gt;CriminalWeapon -->
<g id="edge172" class="edge"><title>Weapon&#45;&gt;CriminalWeapon</title>
<path fill="none" stroke="#8a384c" d="M2197.29,-236.311C2351.85,-223.88 2773.26,-189.984 2963.53,-174.68"/>
<ellipse fill="none" stroke="#8a384c" cx="2193.1" cy="-236.648" rx="4" ry="4"/>
<polygon fill="#8a384c" stroke="#8a384c" points="2963.55,-174.678 2973.87,-178.362 2968.53,-174.277 2973.51,-173.876 2973.51,-173.876 2973.51,-173.876 2968.53,-174.277 2973.15,-169.391 2963.55,-174.678 2963.55,-174.678"/>
</g>
<!-- Weapon&#45;&gt;OfficeWeapon -->
<g id="edge174" class="edge"><title>Weapon&#45;&gt;OfficeWeapon</title>
<path fill="none" stroke="#527c06" d="M2129.01,-214.596C2126.63,-208.318 2124.09,-201.595 2121.68,-195.239"/>
<ellipse fill="none" stroke="#527c06" cx="2130.52" cy="-218.586" rx="4.00001" ry="4.00001"/>
<polygon fill="#527c06" stroke="#527c06" points="2121.6,-195.02 2122.27,-184.075 2119.83,-190.344 2118.06,-185.667 2118.06,-185.667 2118.06,-185.667 2119.83,-190.344 2113.85,-187.26 2121.6,-195.02 2121.6,-195.02"/>
</g>
<!-- Weapon&#45;&gt;Colaboration -->
<g id="edge178" class="edge"><title>Weapon&#45;&gt;Colaboration</title>
<path fill="none" stroke="#82a6f5" d="M2084.67,-231.105C2067.75,-227.835 2049.11,-224.419 2032,-222 1845.6,-195.639 1625.43,-179.512 1509.19,-172.018"/>
<ellipse fill="none" stroke="#82a6f5" cx="2088.9" cy="-231.929" rx="4.00001" ry="4.00001"/>
<polygon fill="#82a6f5" stroke="#82a6f5" points="1508.93,-172.002 1499.24,-166.872 1503.94,-171.682 1498.95,-171.363 1498.95,-171.363 1498.95,-171.363 1503.94,-171.682 1498.66,-175.854 1508.93,-172.002 1508.93,-172.002"/>
</g>
<!-- Weapon&#45;&gt;Event -->
<g id="edge176" class="edge"><title>Weapon&#45;&gt;Event</title>
<path fill="none" stroke="#586e9a" d="M2138.54,-267.816C2134.69,-294.211 2126.04,-334.346 2118.45,-361.108"/>
<ellipse fill="none" stroke="#586e9a" cx="2139.09" cy="-263.728" rx="4.00001" ry="4.00001"/>
<polygon fill="#586e9a" stroke="#586e9a" points="2118.4,-361.27 2111.23,-369.566 2116.97,-366.061 2115.54,-370.852 2115.54,-370.852 2115.54,-370.852 2116.97,-366.061 2119.85,-372.139 2118.4,-361.27 2118.4,-361.27"/>
</g>
<!-- Search -->
<g id="node40" class="node"><title>Search</title>
<ellipse fill="none" stroke="black" cx="2359" cy="-685" rx="44.0472" ry="18.3848"/>
<text text-anchor="middle" x="2359" y="-681.4" font-family="Times Roman,serif" font-size="14.00">Search</text>
</g>
<!-- ColaborationWeapon -->
<g id="node41" class="node"><title>ColaborationWeapon</title>
<ellipse fill="none" stroke="black" cx="2844" cy="-93" rx="113.137" ry="18.3848"/>
<text text-anchor="middle" x="2844" y="-89.4" font-family="Times Roman,serif" font-size="14.00">ColaborationWeapon</text>
</g>
<!-- Priority -->
<g id="node42" class="node"><title>Priority</title>
<ellipse fill="none" stroke="black" cx="2128" cy="-611" rx="46.8775" ry="18.3848"/>
<text text-anchor="middle" x="2128" y="-607.4" font-family="Times Roman,serif" font-size="14.00">Priority</text>
</g>
<!-- Priority&#45;&gt;Office -->
<g id="edge190" class="edge"><title>Priority&#45;&gt;Office</title>
<path fill="none" stroke="#b97023" d="M2085.87,-595.868C2081.22,-594.45 2076.53,-593.125 2072,-592 1968.81,-566.39 1845.04,-549.921 1778.33,-542.182"/>
<ellipse fill="none" stroke="#b97023" cx="2089.8" cy="-597.116" rx="4.00001" ry="4.00001"/>
<polygon fill="#b97023" stroke="#b97023" points="1778.06,-542.152 1768.63,-536.544 1773.09,-541.583 1768.12,-541.015 1768.12,-541.015 1768.12,-541.015 1773.09,-541.583 1767.61,-545.486 1778.06,-542.152 1778.06,-542.152"/>
</g>
<!-- Priority&#45;&gt;Event -->
<g id="edge188" class="edge"><title>Priority&#45;&gt;Event</title>
<path fill="none" stroke="#13f598" d="M2135.21,-584.608C2141.54,-564.814 2152.23,-537.831 2168,-518 2184.82,-496.847 2204.8,-506.111 2217,-482 2224.63,-466.932 2225.88,-458.367 2217,-444 2209.02,-431.084 2175.95,-415.542 2148.14,-404.28"/>
<ellipse fill="none" stroke="#13f598" cx="2134.01" cy="-588.518" rx="4.00001" ry="4.00001"/>
<polygon fill="#13f598" stroke="#13f598" points="2147.86,-404.172 2140.23,-396.303 2143.21,-402.329 2138.57,-400.486 2138.57,-400.486 2138.57,-400.486 2143.21,-402.329 2136.91,-404.669 2147.86,-404.172 2147.86,-404.172"/>
</g>
<!-- CriminalGroup -->
<g id="node45" class="node"><title>CriminalGroup</title>
<ellipse fill="none" stroke="black" cx="3005" cy="-537" rx="82.0244" ry="18.3848"/>
<text text-anchor="middle" x="3005" y="-533.4" font-family="Times Roman,serif" font-size="14.00">CriminalGroup</text>
</g>
<!-- CriminalGroup&#45;&gt;CriminalWeapon -->
<g id="edge208" class="edge"><title>CriminalGroup&#45;&gt;CriminalWeapon</title>
<path fill="none" stroke="#9bb297" d="M3026.53,-512.1C3033.02,-503.184 3039.37,-492.683 3043,-482 3077.19,-381.423 3068.75,-252.388 3062.66,-195.784"/>
<ellipse fill="none" stroke="#9bb297" cx="3024.01" cy="-515.405" rx="4.00002" ry="4.00002"/>
<polygon fill="#9bb297" stroke="#9bb297" points="3062.65,-195.705 3065.99,-185.261 3062.08,-190.737 3061.52,-185.769 3061.52,-185.769 3061.52,-185.769 3062.08,-190.737 3057.05,-186.277 3062.65,-195.705 3062.65,-195.705"/>
</g>
<!-- CriminalGroup&#45;&gt;Vehicle -->
<g id="edge198" class="edge"><title>CriminalGroup&#45;&gt;Vehicle</title>
<path fill="none" stroke="#57c6ca" d="M2916.37,-530.62C2709.9,-515.757 2201.64,-479.171 2032.65,-467.006"/>
<polygon fill="#57c6ca" stroke="#57c6ca" points="2916.49,-530.629 2926.14,-535.835 2921.48,-530.988 2926.47,-531.347 2926.47,-531.347 2926.47,-531.347 2921.48,-530.988 2926.79,-526.858 2916.49,-530.629 2916.49,-530.629"/>
<polygon fill="#57c6ca" stroke="#57c6ca" points="2032.46,-466.992 2022.81,-461.786 2027.47,-466.633 2022.49,-466.274 2022.49,-466.274 2022.49,-466.274 2027.47,-466.633 2022.16,-470.763 2032.46,-466.992 2032.46,-466.992"/>
</g>
<!-- CriminalGroup&#45;&gt;CriminalVehicle -->
<g id="edge206" class="edge"><title>CriminalGroup&#45;&gt;CriminalVehicle</title>
<path fill="none" stroke="#e69e0c" d="M2979.95,-513.232C2951.39,-486.139 2904.9,-442.03 2875.68,-414.311"/>
<ellipse fill="none" stroke="#e69e0c" cx="2982.97" cy="-516.099" rx="4.00002" ry="4.00002"/>
<polygon fill="#e69e0c" stroke="#e69e0c" points="2875.54,-414.179 2871.38,-404.032 2871.91,-410.737 2868.29,-407.296 2868.29,-407.296 2868.29,-407.296 2871.91,-410.737 2865.19,-410.561 2875.54,-414.179 2875.54,-414.179"/>
</g>
<!-- CriminalGroup&#45;&gt;Weapon -->
<g id="edge200" class="edge"><title>CriminalGroup&#45;&gt;Weapon</title>
<path fill="none" stroke="#c5bba8" d="M3009,-508.228C3012.39,-471.23 3012.12,-407.314 2977,-370 2928.23,-318.182 2888.25,-357.241 2821,-334 2783.42,-321.012 2778.38,-306.413 2740,-296 2639.33,-268.685 2331.7,-250.589 2199.94,-243.895"/>
<polygon fill="#c5bba8" stroke="#c5bba8" points="3008.98,-508.403 3003.44,-517.866 3008.44,-513.374 3007.91,-518.346 3007.91,-518.346 3007.91,-518.346 3008.44,-513.374 3012.39,-518.825 3008.98,-508.403 3008.98,-508.403"/>
<polygon fill="#c5bba8" stroke="#c5bba8" points="2199.62,-243.878 2189.85,-238.882 2194.62,-243.627 2189.63,-243.376 2189.63,-243.376 2189.63,-243.376 2194.62,-243.627 2189.4,-247.87 2199.62,-243.878 2199.62,-243.878"/>
</g>
<!-- CriminalDrug -->
<g id="node49" class="node"><title>CriminalDrug</title>
<ellipse fill="none" stroke="black" cx="3163" cy="-241" rx="75.8684" ry="18.3848"/>
<text text-anchor="middle" x="3163" y="-237.4" font-family="Times Roman,serif" font-size="14.00">CriminalDrug</text>
</g>
<!-- CriminalGroup&#45;&gt;CriminalDrug -->
<g id="edge204" class="edge"><title>CriminalGroup&#45;&gt;CriminalDrug</title>
<path fill="none" stroke="#555bb2" d="M3050.38,-516.713C3090.28,-495.958 3145.29,-459.451 3167,-408 3186.16,-362.598 3178.12,-303.892 3170.55,-269.546"/>
<ellipse fill="none" stroke="#555bb2" cx="3046.68" cy="-518.593" rx="4.00002" ry="4.00002"/>
<polygon fill="#555bb2" stroke="#555bb2" points="3170.53,-269.447 3172.63,-258.684 3169.39,-264.579 3168.25,-259.711 3168.25,-259.711 3168.25,-259.711 3169.39,-264.579 3163.87,-260.737 3170.53,-269.447 3170.53,-269.447"/>
</g>
<!-- CriminalGroup&#45;&gt;Drug -->
<g id="edge202" class="edge"><title>CriminalGroup&#45;&gt;Drug</title>
<path fill="none" stroke="#bb403d" d="M3016.55,-508.676C3029.07,-472.948 3043.72,-411.209 3015,-370 3002.53,-352.102 2948.55,-335.318 2909.14,-325.108"/>
<polygon fill="#bb403d" stroke="#bb403d" points="3016.4,-509.069 3008.72,-516.895 3014.67,-513.76 3012.94,-518.452 3012.94,-518.452 3012.94,-518.452 3014.67,-513.76 3017.16,-520.008 3016.4,-509.069 3016.4,-509.069"/>
<polygon fill="#bb403d" stroke="#bb403d" points="2908.91,-325.05 2900.32,-318.232 2904.07,-323.822 2899.22,-322.595 2899.22,-322.595 2899.22,-322.595 2904.07,-323.822 2898.12,-326.957 2908.91,-325.05 2908.91,-325.05"/>
</g>
<!-- Office&#45;&gt;OfficeVehicle -->
<g id="edge224" class="edge"><title>Office&#45;&gt;OfficeVehicle</title>
<path fill="none" stroke="#34798a" d="M1693.91,-520.295C1677.15,-511.018 1658.08,-498.081 1645,-482 1629.72,-463.216 1620.39,-437.197 1615.07,-417.456"/>
<ellipse fill="none" stroke="#34798a" cx="1697.89" cy="-522.417" rx="4.00002" ry="4.00002"/>
<polygon fill="#34798a" stroke="#34798a" points="1615.01,-417.2 1616.94,-406.407 1613.79,-412.35 1612.58,-407.499 1612.58,-407.499 1612.58,-407.499 1613.79,-412.35 1608.21,-408.591 1615.01,-417.2 1615.01,-417.2"/>
</g>
<!-- Office&#45;&gt;Person -->
<g id="edge212" class="edge"><title>Office&#45;&gt;Person</title>
<path fill="none" stroke="#fe5485" d="M1720.08,-508.971C1715,-489.835 1711.63,-464.362 1721,-444 1731.27,-421.664 1747.35,-426.96 1763,-408 1779.6,-387.893 1793.92,-361.893 1803.48,-342.498"/>
<polygon fill="#fe5485" stroke="#fe5485" points="1720.1,-509.016 1718.61,-519.881 1721.51,-513.812 1722.93,-518.608 1722.93,-518.608 1722.93,-518.608 1721.51,-513.812 1727.24,-517.334 1720.1,-509.016 1720.1,-509.016"/>
<polygon fill="#fe5485" stroke="#fe5485" points="1803.57,-342.307 1811.96,-335.243 1805.74,-337.8 1807.9,-333.293 1807.9,-333.293 1807.9,-333.293 1805.74,-337.8 1803.85,-331.344 1803.57,-342.307 1803.57,-342.307"/>
</g>
<!-- Office&#45;&gt;Phone -->
<g id="edge218" class="edge"><title>Office&#45;&gt;Phone</title>
<path fill="none" stroke="#9fc3bf" d="M1719.03,-509.24C1716.15,-500.647 1713.44,-491.057 1712,-482 1709.34,-465.322 1709.21,-460.657 1712,-444 1736.98,-294.81 1754.23,-232.04 1880,-148 1923.2,-119.133 1981.52,-105.251 2022.9,-98.6815"/>
<polygon fill="#9fc3bf" stroke="#9fc3bf" points="1719.07,-509.356 1718.19,-520.287 1720.75,-514.066 1722.43,-518.776 1722.43,-518.776 1722.43,-518.776 1720.75,-514.066 1726.66,-517.266 1719.07,-509.356 1719.07,-509.356"/>
<polygon fill="#9fc3bf" stroke="#9fc3bf" points="2023.15,-98.6446 2033.71,-101.615 2028.1,-97.9044 2033.04,-97.1642 2033.04,-97.1642 2033.04,-97.1642 2028.1,-97.9044 2032.38,-92.7138 2023.15,-98.6446 2023.15,-98.6446"/>
</g>
<!-- Office&#45;&gt;OfficePhone -->
<g id="edge228" class="edge"><title>Office&#45;&gt;OfficePhone</title>
<path fill="none" stroke="#544fe8" d="M1776.98,-533.284C1862.22,-525.991 2038.65,-508.196 2094,-482 2213.41,-425.482 2268,-373.111 2268,-241 2268,-241 2268,-241 2268,-167 2268,-124.495 2280.4,-76.5546 2289.52,-47.0563"/>
<ellipse fill="none" stroke="#544fe8" cx="1772.77" cy="-533.641" rx="4" ry="4"/>
<polygon fill="#544fe8" stroke="#544fe8" points="2289.55,-46.9603 2296.87,-38.7946 2291.06,-42.1955 2292.58,-37.4307 2292.58,-37.4307 2292.58,-37.4307 2291.06,-42.1955 2288.29,-36.0667 2289.55,-46.9603 2289.55,-46.9603"/>
</g>
<!-- Office&#45;&gt;Vehicle -->
<g id="edge216" class="edge"><title>Office&#45;&gt;Vehicle</title>
<path fill="none" stroke="#41307c" d="M1770.42,-522.084C1774.65,-520.65 1778.9,-519.263 1783,-518 1843.99,-499.213 1860.9,-500.433 1922,-482 1925.55,-480.93 1929.2,-479.777 1932.87,-478.587"/>
<polygon fill="#41307c" stroke="#41307c" points="1770.12,-522.19 1759.19,-521.221 1765.39,-523.831 1760.67,-525.472 1760.67,-525.472 1760.67,-525.472 1765.39,-523.831 1762.15,-529.723 1770.12,-522.19 1770.12,-522.19"/>
<polygon fill="#41307c" stroke="#41307c" points="1933.03,-478.535 1943.94,-479.65 1937.77,-476.957 1942.52,-475.38 1942.52,-475.38 1942.52,-475.38 1937.77,-476.957 1941.1,-471.11 1933.03,-478.535 1933.03,-478.535"/>
</g>
<!-- Office&#45;&gt;OfficeFile -->
<g id="edge220" class="edge"><title>Office&#45;&gt;OfficeFile</title>
<path fill="none" stroke="#3e7ddd" d="M1761.84,-518.446C1779.65,-508.071 1801.91,-495.097 1820.43,-484.308"/>
<ellipse fill="none" stroke="#3e7ddd" cx="1758.24" cy="-520.543" rx="4.00002" ry="4.00002"/>
<polygon fill="#3e7ddd" stroke="#3e7ddd" points="1820.54,-484.243 1831.45,-483.096 1824.86,-481.725 1829.18,-479.208 1829.18,-479.208 1829.18,-479.208 1824.86,-481.725 1826.92,-475.32 1820.54,-484.243 1820.54,-484.243"/>
</g>
<!-- Office&#45;&gt;OfficeWeapon -->
<g id="edge226" class="edge"><title>Office&#45;&gt;OfficeWeapon</title>
<path fill="none" stroke="#73c74d" d="M1746.42,-512.035C1758.83,-493.251 1776.34,-466.915 1792,-444 1825.66,-394.725 1849.04,-390.24 1869,-334 1885.69,-286.969 1844.64,-259.988 1877,-222 1896.67,-198.915 1969.43,-184.314 2028.66,-176.005"/>
<ellipse fill="none" stroke="#73c74d" cx="1743.97" cy="-515.752" rx="4.00002" ry="4.00002"/>
<polygon fill="#73c74d" stroke="#73c74d" points="2028.88,-175.975 2039.39,-179.085 2033.83,-175.301 2038.79,-174.626 2038.79,-174.626 2038.79,-174.626 2033.83,-175.301 2038.18,-170.167 2028.88,-175.975 2028.88,-175.975"/>
</g>
<!-- Office&#45;&gt;Weapon -->
<g id="edge214" class="edge"><title>Office&#45;&gt;Weapon</title>
<path fill="none" stroke="#2b5798" d="M1778.94,-533.485C1839.88,-527.9 1946.4,-514.133 2032,-482 2092.09,-459.446 2124.31,-463.811 2156,-408 2180.75,-364.405 2164.56,-303.994 2151.28,-269.05"/>
<polygon fill="#2b5798" stroke="#2b5798" points="1778.8,-533.497 1768.44,-529.891 1773.82,-533.935 1768.84,-534.374 1768.84,-534.374 1768.84,-534.374 1773.82,-533.935 1769.23,-538.856 1778.8,-533.497 1778.8,-533.497"/>
<polygon fill="#2b5798" stroke="#2b5798" points="2151.17,-268.778 2151.65,-257.822 2149.32,-264.132 2147.47,-259.487 2147.47,-259.487 2147.47,-259.487 2149.32,-264.132 2143.29,-261.151 2151.17,-268.778 2151.17,-268.778"/>
</g>
<!-- Office&#45;&gt;OfficePerson -->
<g id="edge222" class="edge"><title>Office&#45;&gt;OfficePerson</title>
<path fill="none" stroke="#1faf41" d="M1693.63,-521.09C1671.7,-510.948 1643.55,-496.937 1620,-482 1575.1,-453.519 1549.22,-455.832 1526,-408 1504.37,-363.437 1512.94,-303.985 1521.04,-269.358"/>
<ellipse fill="none" stroke="#1faf41" cx="1697.47" cy="-522.847" rx="4.00002" ry="4.00002"/>
<polygon fill="#1faf41" stroke="#1faf41" points="1521.09,-269.157 1527.87,-260.539 1522.3,-264.304 1523.51,-259.452 1523.51,-259.452 1523.51,-259.452 1522.3,-264.304 1519.14,-258.366 1521.09,-269.157 1521.09,-269.157"/>
</g>
<!-- Crime -->
<g id="node47" class="node"><title>Crime</title>
<ellipse fill="none" stroke="black" cx="2233" cy="-611" rx="39.8075" ry="18.3848"/>
<text text-anchor="middle" x="2233" y="-607.4" font-family="Times Roman,serif" font-size="14.00">Crime</text>
</g>
<!-- Crime&#45;&gt;Event -->
<g id="edge232" class="edge"><title>Crime&#45;&gt;Event</title>
<path fill="none" stroke="#d03111" d="M2265.74,-592.053C2278.27,-582.911 2291.18,-570.709 2298,-556 2305.11,-540.679 2303.83,-533.85 2298,-518 2283.08,-477.464 2269.76,-469.645 2235,-444 2220.54,-433.329 2179.72,-416.51 2148.03,-404.279"/>
<ellipse fill="none" stroke="#d03111" cx="2262.15" cy="-594.538" rx="4.00002" ry="4.00002"/>
<polygon fill="#d03111" stroke="#d03111" points="2147.87,-404.216 2140.14,-396.439 2143.2,-402.429 2138.53,-400.642 2138.53,-400.642 2138.53,-400.642 2143.2,-402.429 2136.92,-404.845 2147.87,-404.216 2147.87,-404.216"/>
</g>
<!-- Crime&#45;&gt;Fullevent -->
<g id="edge234" class="edge"><title>Crime&#45;&gt;Fullevent</title>
<path fill="none" stroke="#e83192" d="M2233,-584.309C2233,-578.377 2233,-572.061 2233,-566.04"/>
<ellipse fill="none" stroke="#e83192" cx="2233" cy="-588.327" rx="4" ry="4"/>
<polygon fill="#e83192" stroke="#e83192" points="2233,-565.667 2237.5,-555.667 2233,-560.667 2233,-555.667 2233,-555.667 2233,-555.667 2233,-560.667 2228.5,-555.667 2233,-565.667 2233,-565.667"/>
</g>
<!-- Role -->
<g id="node48" class="node"><title>Role</title>
<ellipse fill="none" stroke="black" cx="732" cy="-611" rx="32.0265" ry="18.3848"/>
<text text-anchor="middle" x="732" y="-607.4" font-family="Times Roman,serif" font-size="14.00">Role</text>
</g>
<!-- Role&#45;&gt;User -->
<g id="edge238" class="edge"><title>Role&#45;&gt;User</title>
<path fill="none" stroke="#6a1081" d="M732.721,-584.309C732.882,-578.377 733.052,-572.061 733.215,-566.04"/>
<ellipse fill="none" stroke="#6a1081" cx="732.613" cy="-588.328" rx="4" ry="4"/>
<polygon fill="#6a1081" stroke="#6a1081" points="733.225,-565.664 737.994,-555.789 733.36,-560.666 733.495,-555.667 733.495,-555.667 733.495,-555.667 733.36,-560.666 728.997,-555.546 733.225,-565.664 733.225,-565.664"/>
</g>
<!-- Area -->
<g id="node50" class="node"><title>Area</title>
<ellipse fill="none" stroke="black" cx="1783" cy="-685" rx="33.9411" ry="18.3848"/>
<text text-anchor="middle" x="1783" y="-681.4" font-family="Times Roman,serif" font-size="14.00">Area</text>
</g>
<!-- Area&#45;&gt;Analyst -->
<g id="edge248" class="edge"><title>Area&#45;&gt;Analyst</title>
<path fill="none" stroke="#0d7100" d="M1766.06,-660.89C1760.8,-653.412 1754.98,-645.13 1749.62,-637.498"/>
<ellipse fill="none" stroke="#0d7100" cx="1768.38" cy="-664.19" rx="4.00002" ry="4.00002"/>
<polygon fill="#0d7100" stroke="#0d7100" points="1749.35,-637.107 1747.28,-626.338 1746.47,-633.016 1743.6,-628.925 1743.6,-628.925 1743.6,-628.925 1746.47,-633.016 1739.91,-631.512 1749.35,-637.107 1749.35,-637.107"/>
</g>
<!-- Area&#45;&gt;CriminalGroup -->
<g id="edge246" class="edge"><title>Area&#45;&gt;CriminalGroup</title>
<path fill="none" stroke="#6da5e5" d="M1824.79,-681.884C1921.56,-674.501 2168.46,-654.693 2374,-630 2574.84,-605.872 2810.35,-568.824 2928.78,-549.58"/>
<ellipse fill="none" stroke="#6da5e5" cx="1820.71" cy="-682.195" rx="4" ry="4"/>
<polygon fill="#6da5e5" stroke="#6da5e5" points="2928.97,-549.55 2939.56,-552.385 2933.9,-548.747 2938.84,-547.943 2938.84,-547.943 2938.84,-547.943 2933.9,-548.747 2938.12,-543.502 2928.97,-549.55 2928.97,-549.55"/>
</g>
<!-- Area&#45;&gt;Office -->
<g id="edge252" class="edge"><title>Area&#45;&gt;Office</title>
<path fill="none" stroke="#00d330" d="M1790.49,-658.643C1794.54,-639.397 1797.07,-613.092 1788,-592 1782.37,-578.894 1771.91,-567.446 1761.4,-558.436"/>
<ellipse fill="none" stroke="#00d330" cx="1789.53" cy="-662.787" rx="4.00001" ry="4.00001"/>
<polygon fill="#00d330" stroke="#00d330" points="1761.23,-558.301 1756.26,-548.528 1757.34,-555.168 1753.44,-552.035 1753.44,-552.035 1753.44,-552.035 1757.34,-555.168 1750.62,-555.542 1761.23,-558.301 1761.23,-558.301"/>
</g>
<!-- Area&#45;&gt;Colaboration -->
<g id="edge250" class="edge"><title>Area&#45;&gt;Colaboration</title>
<path fill="none" stroke="#812af1" d="M1744.92,-673.963C1642.53,-641.883 1362.64,-537.745 1268,-334 1238.44,-270.357 1323.81,-215.777 1380.97,-187.548"/>
<ellipse fill="none" stroke="#812af1" cx="1749.02" cy="-675.23" rx="4.00001" ry="4.00001"/>
<polygon fill="#812af1" stroke="#812af1" points="1381.22,-187.427 1392.18,-187.135 1385.72,-185.254 1390.22,-183.082 1390.22,-183.082 1390.22,-183.082 1385.72,-185.254 1388.27,-179.029 1381.22,-187.427 1381.22,-187.427"/>
</g>
<!-- Area&#45;&gt;Event -->
<g id="edge244" class="edge"><title>Area&#45;&gt;Event</title>
<path fill="none" stroke="#fb42ac" d="M1812.75,-666.396C1877.2,-625.666 2026.94,-528.537 2065,-482 2080.66,-462.848 2091.74,-436.915 2098.57,-417.299"/>
<ellipse fill="none" stroke="#fb42ac" cx="1809.08" cy="-668.714" rx="4.00002" ry="4.00002"/>
<polygon fill="#fb42ac" stroke="#fb42ac" points="2098.61,-417.178 2106.02,-409.102 2100.18,-412.432 2101.75,-407.686 2101.75,-407.686 2101.75,-407.686 2100.18,-412.432 2097.48,-406.27 2098.61,-417.178 2098.61,-417.178"/>
</g>
<!-- IphVehicle&#45;&gt;IphIphVehicle -->
<g id="edge256" class="edge"><title>IphVehicle&#45;&gt;IphIphVehicle</title>
<path fill="none" stroke="#41e69a" d="M196.147,-362.309C194.586,-356.229 192.921,-349.745 191.34,-343.589"/>
<ellipse fill="none" stroke="#41e69a" cx="197.211" cy="-366.452" rx="4.00001" ry="4.00001"/>
<polygon fill="#41e69a" stroke="#41e69a" points="191.28,-343.353 193.152,-332.548 190.036,-338.51 188.793,-333.667 188.793,-333.667 188.793,-333.667 190.036,-338.51 184.434,-334.786 191.28,-343.353 191.28,-343.353"/>
</g>
<!-- Drug&#45;&gt;EventDrug -->
<g id="edge266" class="edge"><title>Drug&#45;&gt;EventDrug</title>
<path fill="none" stroke="#b01da4" d="M2854.84,-289.195C2852.01,-282.646 2848.95,-275.58 2846.08,-268.931"/>
<ellipse fill="none" stroke="#b01da4" cx="2856.5" cy="-293.036" rx="4.00002" ry="4.00002"/>
<polygon fill="#b01da4" stroke="#b01da4" points="2846.01,-268.774 2846.17,-257.81 2844.03,-264.185 2842.04,-259.596 2842.04,-259.596 2842.04,-259.596 2844.03,-264.185 2837.91,-261.382 2846.01,-268.774 2846.01,-268.774"/>
</g>
<!-- Drug&#45;&gt;CriminalDrug -->
<g id="edge264" class="edge"><title>Drug&#45;&gt;CriminalDrug</title>
<path fill="none" stroke="#30cdaa" d="M2906.43,-304.927C2956.25,-292.513 3041.48,-271.278 3099.94,-256.713"/>
<ellipse fill="none" stroke="#30cdaa" cx="2902.52" cy="-305.902" rx="4.00001" ry="4.00001"/>
<polygon fill="#30cdaa" stroke="#30cdaa" points="3100.1,-256.672 3110.89,-258.621 3104.95,-255.464 3109.8,-254.255 3109.8,-254.255 3109.8,-254.255 3104.95,-255.464 3108.71,-249.888 3100.1,-256.672 3100.1,-256.672"/>
</g>
<!-- Drug&#45;&gt;Event -->
<g id="edge262" class="edge"><title>Drug&#45;&gt;Event</title>
<path fill="none" stroke="#b880a6" d="M2822.35,-319.595C2690.32,-332.894 2296.29,-371.309 2156.66,-384.494"/>
<ellipse fill="none" stroke="#b880a6" cx="2826.68" cy="-319.158" rx="4" ry="4"/>
<polygon fill="#b880a6" stroke="#b880a6" points="2156.41,-384.518 2146.03,-380.976 2151.43,-384.987 2146.45,-385.456 2146.45,-385.456 2146.45,-385.456 2151.43,-384.987 2146.87,-389.936 2156.41,-384.518 2156.41,-384.518"/>
</g>
<!-- Colaboration&#45;&gt;ColaborationVehicle -->
<g id="edge276" class="edge"><title>Colaboration&#45;&gt;ColaborationVehicle</title>
<path fill="none" stroke="#c3083d" d="M1465.93,-146.362C1483.45,-136.829 1504.3,-125.482 1522.27,-115.707"/>
<ellipse fill="none" stroke="#c3083d" cx="1462.37" cy="-148.296" rx="4.00002" ry="4.00002"/>
<polygon fill="#c3083d" stroke="#c3083d" points="1522.58,-115.537 1533.52,-114.71 1526.97,-113.147 1531.37,-110.757 1531.37,-110.757 1531.37,-110.757 1526.97,-113.147 1529.21,-106.804 1522.58,-115.537 1522.58,-115.537"/>
</g>
<!-- Colaboration&#45;&gt;Person -->
<g id="edge270" class="edge"><title>Colaboration&#45;&gt;Person</title>
<path fill="none" stroke="#08c4ac" d="M1496.8,-179.987C1539.92,-189.226 1596.18,-203.316 1644,-222 1694.79,-241.847 1749.57,-273.407 1783.33,-294.164"/>
<polygon fill="#08c4ac" stroke="#08c4ac" points="1496.76,-179.978 1487.9,-173.513 1491.87,-178.947 1486.98,-177.916 1486.98,-177.916 1486.98,-177.916 1491.87,-178.947 1486.05,-182.32 1496.76,-179.978 1496.76,-179.978"/>
<polygon fill="#08c4ac" stroke="#08c4ac" points="1783.36,-294.183 1789.49,-303.278 1787.61,-296.818 1791.86,-299.454 1791.86,-299.454 1791.86,-299.454 1787.61,-296.818 1794.23,-295.63 1783.36,-294.183 1783.36,-294.183"/>
</g>
<!-- Colaboration&#45;&gt;Phone -->
<g id="edge284" class="edge"><title>Colaboration&#45;&gt;Phone</title>
<path fill="none" stroke="#d3a814" d="M1504.76,-158.207C1638.35,-142.904 1910.1,-111.775 2023.02,-98.8398"/>
<polygon fill="#d3a814" stroke="#d3a814" points="1504.64,-158.221 1494.19,-154.889 1499.67,-158.79 1494.7,-159.359 1494.7,-159.359 1494.7,-159.359 1499.67,-158.79 1495.21,-163.83 1504.64,-158.221 1504.64,-158.221"/>
<polygon fill="#d3a814" stroke="#d3a814" points="2023.19,-98.8207 2033.63,-102.153 2028.16,-98.2516 2033.12,-97.6825 2033.12,-97.6825 2033.12,-97.6825 2028.16,-98.2516 2032.61,-93.2118 2023.19,-98.8207 2023.19,-98.8207"/>
</g>
<!-- Colaboration&#45;&gt;Vehicle -->
<g id="edge274" class="edge"><title>Colaboration&#45;&gt;Vehicle</title>
<path fill="none" stroke="#00b766" d="M1500.39,-178.924C1535.77,-187.114 1577.77,-200.518 1611,-222 1629.79,-234.143 1628.26,-244.104 1644,-260 1713.77,-330.479 1724.9,-358.775 1811,-408 1856.02,-433.742 1872.82,-427.532 1922,-444 1925.46,-445.159 1929.04,-446.369 1932.64,-447.593"/>
<polygon fill="#00b766" stroke="#00b766" points="1500.37,-178.918 1491.58,-172.357 1495.49,-177.834 1490.61,-176.75 1490.61,-176.75 1490.61,-176.75 1495.49,-177.834 1489.63,-181.143 1500.37,-178.918 1500.37,-178.918"/>
<polygon fill="#00b766" stroke="#00b766" points="1932.66,-447.601 1940.66,-455.096 1937.39,-449.22 1942.12,-450.839 1942.12,-450.839 1942.12,-450.839 1937.39,-449.22 1943.58,-446.581 1932.66,-447.601 1932.66,-447.601"/>
</g>
<!-- Colaboration&#45;&gt;ColaborationFile -->
<g id="edge286" class="edge"><title>Colaboration&#45;&gt;ColaborationFile</title>
<path fill="none" stroke="#c649ba" d="M1348.66,-162.091C1136.8,-148.982 558.282,-113.188 328.217,-98.9532"/>
<ellipse fill="none" stroke="#c649ba" cx="1352.77" cy="-162.346" rx="4" ry="4"/>
<polygon fill="#c649ba" stroke="#c649ba" points="328.171,-98.9505 318.468,-93.8414 323.18,-98.6416 318.19,-98.3328 318.19,-98.3328 318.19,-98.3328 323.18,-98.6416 317.912,-102.824 328.171,-98.9505 328.171,-98.9505"/>
</g>
<!-- Colaboration&#45;&gt;ColaborationPerson -->
<g id="edge272" class="edge"><title>Colaboration&#45;&gt;ColaborationPerson</title>
<path fill="none" stroke="#78e4b6" d="M1357.4,-156.161C1272.26,-143.09 1129.02,-121.098 1036.01,-106.819"/>
<ellipse fill="none" stroke="#78e4b6" cx="1361.53" cy="-156.795" rx="4.00001" ry="4.00001"/>
<polygon fill="#78e4b6" stroke="#78e4b6" points="1035.94,-106.808 1026.74,-100.842 1030.99,-106.049 1026.05,-105.29 1026.05,-105.29 1026.05,-105.29 1030.99,-106.049 1025.37,-109.738 1035.94,-106.808 1035.94,-106.808"/>
</g>
<!-- Colaboration&#45;&gt;Weapon -->
<g id="edge278" class="edge"><title>Colaboration&#45;&gt;Weapon</title>
<path fill="none" stroke="#69a722" d="M1510.13,-171.339C1629.59,-178.511 1857.76,-194.813 2050,-222 2062.2,-223.725 2075.18,-225.958 2087.38,-228.282"/>
<polygon fill="#69a722" stroke="#69a722" points="1509.95,-171.328 1500.23,-166.243 1504.96,-171.032 1499.97,-170.735 1499.97,-170.735 1499.97,-170.735 1504.96,-171.032 1499.7,-175.227 1509.95,-171.328 1509.95,-171.328"/>
<polygon fill="#69a722" stroke="#69a722" points="2087.59,-228.324 2096.54,-234.664 2092.5,-229.286 2097.4,-230.248 2097.4,-230.248 2097.4,-230.248 2092.5,-229.286 2098.27,-225.832 2087.59,-228.324 2087.59,-228.324"/>
</g>
<!-- Colaboration&#45;&gt;ColaborationWeapon -->
<g id="edge280" class="edge"><title>Colaboration&#45;&gt;ColaborationWeapon</title>
<path fill="none" stroke="#86ecf1" d="M1508.02,-162.818C1745.25,-150.421 2445.61,-113.82 2725.99,-99.1672"/>
<ellipse fill="none" stroke="#86ecf1" cx="1503.67" cy="-163.045" rx="4" ry="4"/>
<polygon fill="#86ecf1" stroke="#86ecf1" points="2726.2,-99.1561 2736.43,-103.128 2731.2,-98.8951 2736.19,-98.6341 2736.19,-98.6341 2736.19,-98.6341 2731.2,-98.8951 2735.96,-94.1402 2726.2,-99.1561 2726.2,-99.1561"/>
</g>
<!-- Colaboration&#45;&gt;ColaborationPhone -->
<g id="edge282" class="edge"><title>Colaboration&#45;&gt;ColaborationPhone</title>
<path fill="none" stroke="#22247a" d="M1425.49,-140.386C1425.09,-119.076 1428.48,-90.1655 1447,-74 1492.89,-33.9523 1933.5,-45.0588 1994,-38 2003.85,-36.8502 2014.16,-35.4272 2024.36,-33.8811"/>
<ellipse fill="none" stroke="#22247a" cx="1425.66" cy="-144.426" rx="4" ry="4"/>
<polygon fill="#22247a" stroke="#22247a" points="2024.63,-33.8392 2035.21,-36.746 2029.57,-33.0694 2034.51,-32.2996 2034.51,-32.2996 2034.51,-32.2996 2029.57,-33.0694 2033.82,-27.8533 2024.63,-33.8392 2024.63,-33.8392"/>
</g>
<!-- Event&#45;&gt;Person -->
<g id="edge292" class="edge"><title>Event&#45;&gt;Person</title>
<path fill="none" stroke="#d28ae8" d="M2062.08,-377.576C2008.35,-363.915 1918.82,-341.146 1863.84,-327.165"/>
<polygon fill="#d28ae8" stroke="#d28ae8" points="2062.21,-377.609 2070.79,-384.435 2067.05,-378.842 2071.9,-380.074 2071.9,-380.074 2071.9,-380.074 2067.05,-378.842 2073.01,-375.713 2062.21,-377.609 2062.21,-377.609"/>
<polygon fill="#d28ae8" stroke="#d28ae8" points="1863.68,-327.126 1855.1,-320.3 1858.84,-325.893 1853.99,-324.661 1853.99,-324.661 1853.99,-324.661 1858.84,-325.893 1852.88,-329.022 1863.68,-327.126 1863.68,-327.126"/>
</g>
<!-- Event&#45;&gt;Phone -->
<g id="edge310" class="edge"><title>Event&#45;&gt;Phone</title>
<path fill="none" stroke="#63e7cd" d="M2130.5,-364.493C2171.13,-319.053 2245.87,-219.826 2199,-148 2182.33,-122.446 2150.83,-108.685 2123.62,-101.318"/>
<polygon fill="#63e7cd" stroke="#63e7cd" points="2130.32,-364.689 2120.26,-369.046 2126.95,-368.384 2123.59,-372.078 2123.59,-372.078 2123.59,-372.078 2126.95,-368.384 2126.91,-375.11 2130.32,-364.689 2130.32,-364.689"/>
<polygon fill="#63e7cd" stroke="#63e7cd" points="2123.53,-101.296 2114.91,-94.5164 2118.68,-100.09 2113.83,-98.8835 2113.83,-98.8835 2113.83,-98.8835 2118.68,-100.09 2112.74,-103.251 2123.53,-101.296 2123.53,-101.296"/>
</g>
<!-- Event&#45;&gt;EventVehicle -->
<g id="edge296" class="edge"><title>Event&#45;&gt;EventVehicle</title>
<path fill="none" stroke="#c4afe8" d="M2154.23,-383.788C2228.69,-375.269 2377.77,-356.985 2503,-334 2509.3,-332.844 2515.84,-331.536 2522.36,-330.159"/>
<ellipse fill="none" stroke="#c4afe8" cx="2149.94" cy="-384.277" rx="4.00001" ry="4.00001"/>
<polygon fill="#c4afe8" stroke="#c4afe8" points="2522.79,-330.067 2533.52,-332.35 2527.68,-329.009 2532.56,-327.952 2532.56,-327.952 2532.56,-327.952 2527.68,-329.009 2531.61,-323.554 2522.79,-330.067 2522.79,-330.067"/>
</g>
<!-- Event&#45;&gt;Vehicle -->
<g id="edge294" class="edge"><title>Event&#45;&gt;Vehicle</title>
<path fill="none" stroke="#d662c7" d="M2076.34,-409.957C2058.34,-420.684 2035.52,-433.643 2016.24,-444.067"/>
<polygon fill="#d662c7" stroke="#d662c7" points="2076.7,-409.739 2087.58,-408.429 2080.98,-407.157 2085.26,-404.576 2085.26,-404.576 2085.26,-404.576 2080.98,-407.157 2082.94,-400.722 2076.7,-409.739 2076.7,-409.739"/>
<polygon fill="#d662c7" stroke="#d662c7" points="2016.01,-444.189 2005.07,-444.939 2011.6,-446.548 2007.19,-448.907 2007.19,-448.907 2007.19,-448.907 2011.6,-446.548 2009.32,-452.875 2016.01,-444.189 2016.01,-444.189"/>
</g>
<!-- Event&#45;&gt;EventPerson -->
<g id="edge290" class="edge"><title>Event&#45;&gt;EventPerson</title>
<path fill="none" stroke="#e0caa8" d="M2081.63,-366.995C2070.5,-357.118 2057.4,-345.19 2046,-334 2023.64,-312.044 1999.37,-285.889 1982.16,-266.917"/>
<ellipse fill="none" stroke="#e0caa8" cx="2084.93" cy="-369.907" rx="4.00002" ry="4.00002"/>
<polygon fill="#e0caa8" stroke="#e0caa8" points="1981.94,-266.68 1978.58,-256.242 1978.59,-262.969 1975.24,-259.259 1975.24,-259.259 1975.24,-259.259 1978.59,-262.969 1971.9,-262.275 1981.94,-266.68 1981.94,-266.68"/>
</g>
<!-- Event&#45;&gt;EventDrug -->
<g id="edge298" class="edge"><title>Event&#45;&gt;EventDrug</title>
<path fill="none" stroke="#0be0e6" d="M2140.46,-371.013C2182.33,-349.392 2256.83,-313.801 2325,-296 2405.43,-274.997 2640.06,-255.324 2760.62,-246.25"/>
<ellipse fill="none" stroke="#0be0e6" cx="2136.83" cy="-372.903" rx="4.00002" ry="4.00002"/>
<polygon fill="#0be0e6" stroke="#0be0e6" points="2760.89,-246.229 2771.2,-249.971 2765.88,-245.856 2770.86,-245.483 2770.86,-245.483 2770.86,-245.483 2765.88,-245.856 2770.53,-240.996 2760.89,-246.229 2760.89,-246.229"/>
</g>
<!-- Event&#45;&gt;BackupFile -->
<g id="edge306" class="edge"><title>Event&#45;&gt;BackupFile</title>
<path fill="none" stroke="#83f987" d="M2059.59,-384.426C1929.14,-371.84 1564.37,-336.647 1410.2,-321.773"/>
<ellipse fill="none" stroke="#83f987" cx="2063.66" cy="-384.819" rx="4" ry="4"/>
<polygon fill="#83f987" stroke="#83f987" points="1409.87,-321.741 1400.35,-316.301 1404.89,-321.261 1399.92,-320.781 1399.92,-320.781 1399.92,-320.781 1404.89,-321.261 1399.48,-325.26 1409.87,-321.741 1409.87,-321.741"/>
</g>
<!-- Event&#45;&gt;EventPhone -->
<g id="edge308" class="edge"><title>Event&#45;&gt;EventPhone</title>
<path fill="none" stroke="#c8a446" d="M2098.23,-362.546C2086.76,-329.064 2065.23,-269.971 2041,-222 2007.69,-156.042 1959.41,-83.8112 1933.01,-45.817"/>
<ellipse fill="none" stroke="#c8a446" cx="2099.64" cy="-366.697" rx="4.00001" ry="4.00001"/>
<polygon fill="#c8a446" stroke="#c8a446" points="1932.82,-45.5574 1930.79,-34.7827 1929.96,-41.4588 1927.1,-37.3602 1927.1,-37.3602 1927.1,-37.3602 1929.96,-41.4588 1923.41,-39.9376 1932.82,-45.5574 1932.82,-45.5574"/>
</g>
<!-- Event&#45;&gt;Weapon -->
<g id="edge302" class="edge"><title>Event&#45;&gt;Weapon</title>
<path fill="none" stroke="#942001" d="M2107.77,-360.071C2111.75,-333.806 2120.09,-295.304 2127.45,-269.251"/>
<polygon fill="#942001" stroke="#942001" points="2107.73,-360.348 2101.92,-369.646 2107.06,-365.302 2106.38,-370.256 2106.38,-370.256 2106.38,-370.256 2107.06,-365.302 2110.84,-370.865 2107.73,-360.348 2107.73,-360.348"/>
<polygon fill="#942001" stroke="#942001" points="2127.47,-269.178 2134.64,-260.874 2128.9,-264.385 2130.32,-259.592 2130.32,-259.592 2130.32,-259.592 2128.9,-264.385 2126.01,-258.311 2127.47,-269.178 2127.47,-269.178"/>
</g>
<!-- Event&#45;&gt;EventWeapon -->
<g id="edge304" class="edge"><title>Event&#45;&gt;EventWeapon</title>
<path fill="none" stroke="#f1035e" d="M2150.61,-378.487C2202.27,-366.036 2288.83,-345.172 2348.53,-330.78"/>
<ellipse fill="none" stroke="#f1035e" cx="2146.41" cy="-379.502" rx="4.00001" ry="4.00001"/>
<polygon fill="#f1035e" stroke="#f1035e" points="2348.89,-330.693 2359.67,-332.725 2353.75,-329.522 2358.62,-328.35 2358.62,-328.35 2358.62,-328.35 2353.75,-329.522 2357.56,-323.975 2348.89,-330.693 2348.89,-330.693"/>
</g>
<!-- Event&#45;&gt;Drug -->
<g id="edge300" class="edge"><title>Event&#45;&gt;Drug</title>
<path fill="none" stroke="#982e91" d="M2156.28,-383.839C2294.71,-369.93 2685.28,-331.862 2819.84,-319.176"/>
<polygon fill="#982e91" stroke="#982e91" points="2156.06,-383.861 2145.66,-380.386 2151.09,-384.362 2146.11,-384.863 2146.11,-384.863 2146.11,-384.863 2151.09,-384.362 2146.56,-389.34 2156.06,-383.861 2156.06,-383.861"/>
<polygon fill="#982e91" stroke="#982e91" points="2820.24,-319.138 2830.62,-322.682 2825.22,-318.67 2830.2,-318.202 2830.2,-318.202 2830.2,-318.202 2825.22,-318.67 2829.78,-313.722 2820.24,-319.138 2820.24,-319.138"/>
</g>
<!-- WeaponType -->
<g id="node56" class="node"><title>WeaponType</title>
<ellipse fill="none" stroke="black" cx="1216" cy="-463" rx="73.0388" ry="18.3848"/>
<text text-anchor="middle" x="1216" y="-459.4" font-family="Times Roman,serif" font-size="14.00">WeaponType</text>
</g>
<!-- WeaponType&#45;&gt;IphWeapon -->
<g id="edge316" class="edge"><title>WeaponType&#45;&gt;IphWeapon</title>
<path fill="none" stroke="#b082a0" d="M1153.72,-448.776C1095.99,-435.59 1010.61,-416.089 953.219,-402.982"/>
<ellipse fill="none" stroke="#b082a0" cx="1157.87" cy="-449.723" rx="4.00001" ry="4.00001"/>
<polygon fill="#b082a0" stroke="#b082a0" points="952.945,-402.92 944.198,-396.306 948.071,-401.806 943.196,-400.693 943.196,-400.693 943.196,-400.693 948.071,-401.806 942.194,-405.08 952.945,-402.92 952.945,-402.92"/>
</g>
<!-- WeaponType&#45;&gt;Weapon -->
<g id="edge314" class="edge"><title>WeaponType&#45;&gt;Weapon</title>
<path fill="none" stroke="#cfe95b" d="M1247.56,-440.796C1279.32,-419.491 1330.42,-387.976 1379,-370 1658.72,-266.488 1746.56,-307.559 2041,-260 2055.18,-257.71 2070.45,-254.911 2084.62,-252.173"/>
<ellipse fill="none" stroke="#cfe95b" cx="1244.01" cy="-443.202" rx="4.00002" ry="4.00002"/>
<polygon fill="#cfe95b" stroke="#cfe95b" points="2084.9,-252.118 2095.57,-254.614 2089.8,-251.158 2094.71,-250.198 2094.71,-250.198 2094.71,-250.198 2089.8,-251.158 2093.85,-245.781 2084.9,-252.118 2084.9,-252.118"/>
</g>
<!-- IphIphPerson -->
<g id="node57" class="node"><title>IphIphPerson</title>
<ellipse fill="none" stroke="black" cx="3560" cy="-685" rx="75.1594" ry="18.3848"/>
<text text-anchor="middle" x="3560" y="-681.4" font-family="Times Roman,serif" font-size="14.00">IphIphPerson</text>
</g>
<!-- ActiveRecord::Base -->
<g id="node58" class="node"><title>ActiveRecord::Base</title>
<ellipse fill="none" stroke="black" cx="1624" cy="-787" rx="103.945" ry="18.3848"/>
<text text-anchor="middle" x="1624" y="-783.4" font-family="Times Roman,serif" font-size="14.00">ActiveRecord::Base</text>
</g>
<!-- ActiveRecord::Base&#45;&gt;OfficeVehicle -->
<g id="edge2" class="edge"><title>ActiveRecord::Base&#45;&gt;OfficeVehicle</title>
<path fill="none" stroke="black" d="M1597.41,-769.043C1577.98,-754.189 1553.16,-731.169 1542,-704 1498.03,-596.941 1568.98,-457.062 1597.74,-407.437"/>
</g>
<!-- ActiveRecord::Base&#45;&gt;User -->
<g id="edge8" class="edge"><title>ActiveRecord::Base&#45;&gt;User</title>
<path fill="none" stroke="black" d="M1590.39,-769.44C1568.43,-758.878 1538.77,-746.295 1511,-740 1435.59,-722.902 878.573,-749.43 816,-704 772.853,-672.673 798.173,-639.004 773,-592 765.816,-578.585 755.871,-564.612 747.822,-554.107"/>
</g>
<!-- ActiveRecord::Base&#45;&gt;CriminalWeapon -->
<g id="edge10" class="edge"><title>ActiveRecord::Base&#45;&gt;CriminalWeapon</title>
<path fill="none" stroke="black" d="M1727.15,-784.568C2050.11,-776.521 3028.43,-748.694 3164,-704 3235.3,-680.495 3305,-686.07 3305,-611 3305,-611 3305,-611 3305,-315 3305,-271.288 3305.12,-251.651 3273,-222 3252.42,-203.005 3185.71,-187.787 3132.18,-178.216"/>
</g>
<!-- ActiveRecord::Base&#45;&gt;IphIphVehicle -->
<g id="edge12" class="edge"><title>ActiveRecord::Base&#45;&gt;IphIphVehicle</title>
<path fill="none" stroke="black" d="M1590.93,-769.456C1568.94,-758.754 1539.05,-746.013 1511,-740 1372.43,-710.291 369.621,-751.233 236,-704 171.718,-681.277 114,-679.18 114,-611 114,-611 114,-611 114,-463 114,-420.813 113.721,-407.524 133,-370 140.26,-355.869 152.183,-342.716 162.676,-332.817"/>
</g>
<!-- ActiveRecord::Base&#45;&gt;ColaborationVehicle -->
<g id="edge14" class="edge"><title>ActiveRecord::Base&#45;&gt;ColaborationVehicle</title>
<path fill="none" stroke="black" d="M1590.4,-769.395C1568.44,-758.814 1538.78,-746.229 1511,-740 1427.86,-721.359 820.031,-744.376 745,-704 669.198,-663.209 672.777,-602.129 691,-518 702.369,-465.515 724.409,-459.075 741,-408 754.033,-367.877 760,-357.187 760,-315 760,-315 760,-315 760,-241 760,-169.947 1251.95,-119.495 1466.22,-100.891"/>
</g>
<!-- ActiveRecord::Base&#45;&gt;Person -->
<g id="edge28" class="edge"><title>ActiveRecord::Base&#45;&gt;Person</title>
<path fill="none" stroke="black" d="M1583.23,-769.974C1561.75,-761.022 1534.96,-749.885 1511,-740 1419.93,-702.434 1320.37,-687.119 1346,-592 1375.75,-481.599 1381.46,-434.312 1476,-370 1523.52,-337.67 1691.42,-322.88 1772.09,-317.519"/>
</g>
<!-- ActiveRecord::Base&#45;&gt;Phone -->
<g id="edge38" class="edge"><title>ActiveRecord::Base&#45;&gt;Phone</title>
<path fill="none" stroke="black" d="M1727.82,-785.574C2062.12,-780.441 3096.84,-760.143 3236,-704 3294.43,-680.426 3343,-674.008 3343,-611 3343,-611 3343,-611 3343,-241 3343,-149.766 3248.16,-171.489 3160,-148 3057.9,-120.797 2303.83,-99.1103 2116.19,-94.0958"/>
</g>
<!-- ActiveRecord::Base&#45;&gt;IphIphDrug -->
<g id="edge40" class="edge"><title>ActiveRecord::Base&#45;&gt;IphIphDrug</title>
<path fill="none" stroke="black" d="M1590.42,-769.289C1568.47,-758.667 1538.82,-746.074 1511,-740 1292.67,-692.325 727.5,-733.658 506,-704 495.263,-702.562 483.864,-700.336 473.114,-697.907"/>
</g>
<!-- ActiveRecord::Base&#45;&gt;IphObject -->
<g id="edge44" class="edge"><title>ActiveRecord::Base&#45;&gt;IphObject</title>
<path fill="none" stroke="black" d="M1590.43,-769.244C1568.49,-758.602 1538.83,-746.007 1511,-740 1447.87,-726.374 398.394,-745.614 349,-704 316.737,-676.818 330,-653.187 330,-611 330,-611 330,-611 330,-537 330,-488.378 353.73,-434.962 367.82,-407.531"/>
</g>
<!-- ActiveRecord::Base&#45;&gt;Locality -->
<g id="edge50" class="edge"><title>ActiveRecord::Base&#45;&gt;Locality</title>
<path fill="none" stroke="black" d="M1600.63,-768.716C1583.24,-753.525 1560.89,-730.215 1551,-704 1530.12,-648.637 1578.69,-585.047 1606.4,-554.79"/>
</g>
<!-- ActiveRecord::Base&#45;&gt;Status -->
<g id="edge62" class="edge"><title>ActiveRecord::Base&#45;&gt;Status</title>
<path fill="none" stroke="black" d="M1583.19,-769.799C1540.43,-751.245 1476.78,-721.955 1457,-704 1433.61,-682.766 1416.17,-649.966 1406.79,-629.528"/>
</g>
<!-- ActiveRecord::Base&#45;&gt;OfficePhone -->
<g id="edge64" class="edge"><title>ActiveRecord::Base&#45;&gt;OfficePhone</title>
<path fill="none" stroke="black" d="M1727.31,-784.478C2093.13,-775.242 3309.07,-741.826 3383,-704 3430.02,-679.941 3457,-663.822 3457,-611 3457,-611 3457,-611 3457,-167 3457,-114.098 3669.41,-166.699 3241,-74 3074.68,-38.0117 2557.93,-24.2127 2369.05,-20.2896"/>
</g>
<!-- ActiveRecord::Base&#45;&gt;IphWeapon -->
<g id="edge66" class="edge"><title>ActiveRecord::Base&#45;&gt;IphWeapon</title>
<path fill="none" stroke="black" d="M1590.38,-769.469C1568.42,-758.917 1538.76,-746.337 1511,-740 1439.72,-723.728 909.924,-751.091 854,-704 809.31,-666.368 788.266,-495.949 815,-444 823.87,-426.763 840.923,-413.731 856.73,-404.69"/>
</g>
<!-- ActiveRecord::Base&#45;&gt;EventVehicle -->
<g id="edge68" class="edge"><title>ActiveRecord::Base&#45;&gt;EventVehicle</title>
<path fill="none" stroke="black" d="M1726.61,-783.624C1986.11,-774.492 2654.39,-747.051 2745,-704 2823.04,-666.924 3000.26,-435.567 2944,-370 2939.25,-364.46 2752.91,-338.003 2651.01,-323.9"/>
</g>
<!-- ActiveRecord::Base&#45;&gt;Vehicle -->
<g id="edge80" class="edge"><title>ActiveRecord::Base&#45;&gt;Vehicle</title>
<path fill="none" stroke="black" d="M1609.26,-768.423C1591.94,-744.198 1567.56,-700.809 1584,-666 1606.12,-619.177 1628.82,-617.312 1674,-592 1716.67,-568.092 1732.67,-574.379 1778,-556 1839.85,-530.923 1910.13,-496.672 1948.41,-477.508"/>
</g>
<!-- ActiveRecord::Base&#45;&gt;EventPerson -->
<g id="edge84" class="edge"><title>ActiveRecord::Base&#45;&gt;EventPerson</title>
<path fill="none" stroke="black" d="M1690.97,-772.822C1738.8,-760.355 1802.93,-738.676 1851,-704 1902.56,-666.803 1899.82,-641.278 1940,-592 1980.27,-542.603 2010.25,-541.908 2032,-482 2047.44,-439.469 1990.18,-308.147 1967.7,-259.434"/>
</g>
<!-- ActiveRecord::Base&#45;&gt;Township -->
<g id="edge92" class="edge"><title>ActiveRecord::Base&#45;&gt;Township</title>
<path fill="none" stroke="black" d="M1695.88,-773.622C1752.86,-761.063 1833.23,-738.901 1897,-704 1933.88,-683.817 1969.57,-649.752 1989.57,-628.929"/>
</g>
<!-- ActiveRecord::Base&#45;&gt;PersonPhone -->
<g id="edge94" class="edge"><title>ActiveRecord::Base&#45;&gt;PersonPhone</title>
<path fill="none" stroke="black" d="M1590.93,-769.421C1568.95,-758.706 1539.06,-745.961 1511,-740 1431.31,-723.068 113.486,-748.124 45,-704 6.39993,-679.131 0,-656.918 0,-611 0,-611 0,-611 0,-167 0,-94.8712 64.5808,-96.8338 133,-74 206.876,-49.3451 1366.69,-26.124 1675.14,-20.3616"/>
</g>
<!-- ActiveRecord::Base&#45;&gt;EventDrug -->
<g id="edge96" class="edge"><title>ActiveRecord::Base&#45;&gt;EventDrug</title>
<path fill="none" stroke="black" d="M1727.19,-784.395C2031.36,-776.23 2910.79,-748.973 3032,-704 3095.59,-680.406 3153,-678.827 3153,-611 3153,-611 3153,-611 3153,-537 3153,-454.116 3131.3,-425.79 3070,-370 3010.26,-315.626 2923.49,-275.83 2873.5,-255.741"/>
</g>
<!-- ActiveRecord::Base&#45;&gt;Unit -->
<g id="edge98" class="edge"><title>ActiveRecord::Base&#45;&gt;Unit</title>
<path fill="none" stroke="black" d="M1588.97,-769.563C1567.08,-759.391 1538,-747.186 1511,-740 1388.05,-707.276 1349.99,-736.573 1227,-704 1219.98,-702.142 1212.62,-699.457 1205.89,-696.689"/>
</g>
<!-- ActiveRecord::Base&#45;&gt;Iph -->
<g id="edge110" class="edge"><title>ActiveRecord::Base&#45;&gt;Iph</title>
<path fill="none" stroke="black" d="M1590.41,-769.333C1568.46,-758.727 1538.8,-746.137 1511,-740 1414.25,-718.641 693.737,-770.181 620,-704 555.617,-646.214 571.123,-526.962 579.968,-481.32"/>
</g>
<!-- ActiveRecord::Base&#45;&gt;BackupFile -->
<g id="edge112" class="edge"><title>ActiveRecord::Base&#45;&gt;BackupFile</title>
<path fill="none" stroke="black" d="M1589.3,-769.398C1567.4,-759.098 1538.21,-746.815 1511,-740 1430.65,-719.873 1203.22,-757.517 1140,-704 1107.33,-676.347 1115,-653.801 1115,-611 1115,-611 1115,-611 1115,-463 1115,-380.827 1221.05,-341.727 1287.53,-325.288"/>
</g>
<!-- ActiveRecord::Base&#45;&gt;ColaborationArea -->
<g id="edge116" class="edge"><title>ActiveRecord::Base&#45;&gt;ColaborationArea</title>
<path fill="none" stroke="black" d="M1588.4,-769.605C1566.53,-759.58 1537.69,-747.513 1511,-740 1410.98,-711.847 1374.67,-746.827 1280,-704 1248.6,-689.796 1072.63,-535.286 1011.74,-481.405"/>
</g>
<!-- ActiveRecord::Base&#45;&gt;OfficeFile -->
<g id="edge118" class="edge"><title>ActiveRecord::Base&#45;&gt;OfficeFile</title>
<path fill="none" stroke="black" d="M1701.84,-774.637C1745.17,-763.577 1796.23,-742.805 1826,-704 1877.87,-636.392 1867.18,-525.427 1860.37,-481.621"/>
</g>
<!-- ActiveRecord::Base&#45;&gt;Analyst -->
<g id="edge130" class="edge"><title>ActiveRecord::Base&#45;&gt;Analyst</title>
<path fill="none" stroke="black" d="M1643.62,-768.823C1659.76,-752.991 1682.3,-728.749 1697,-704 1711.22,-680.055 1721.06,-649.174 1726.37,-629.723"/>
</g>
<!-- ActiveRecord::Base&#45;&gt;CriminalVehicle -->
<g id="edge132" class="edge"><title>ActiveRecord::Base&#45;&gt;CriminalVehicle</title>
<path fill="none" stroke="black" d="M1724.88,-782.496C1972.61,-770.953 2597.17,-738.768 2685,-704 2746.44,-679.678 2801,-677.079 2801,-611 2801,-611 2801,-611 2801,-537 2801,-488.378 2824.73,-434.962 2838.82,-407.531"/>
</g>
<!-- ActiveRecord::Base&#45;&gt;ColaborationFile -->
<g id="edge134" class="edge"><title>ActiveRecord::Base&#45;&gt;ColaborationFile</title>
<path fill="none" stroke="black" d="M1590.93,-769.428C1568.95,-758.715 1539.06,-745.971 1511,-740 1433.54,-723.514 153.104,-746.052 86,-704 46.5856,-679.301 38,-657.514 38,-611 38,-611 38,-611 38,-241 38,-169.619 122.047,-128.086 179.501,-108.034"/>
</g>
<!-- ActiveRecord::Base&#45;&gt;Test -->
<g id="edge136" class="edge"><title>ActiveRecord::Base&#45;&gt;Test</title>
<path fill="none" stroke="black" d="M1624,-768.292C1624,-749.888 1624,-721.953 1624,-703.59"/>
</g>
<!-- ActiveRecord::Base&#45;&gt;EventPhone -->
<g id="edge138" class="edge"><title>ActiveRecord::Base&#45;&gt;EventPhone</title>
<path fill="none" stroke="black" d="M1590.42,-769.306C1568.47,-758.69 1538.81,-746.099 1511,-740 1407.06,-717.206 640.027,-766.627 554,-704 491.344,-658.387 464,-623.995 464,-315 464,-315 464,-315 464,-167 464,0.835899 663.861,-97.8086 830,-74 1271.99,-10.6598 1391.52,-97.8792 1834,-38 1843.9,-36.6599 1854.37,-34.6321 1864.36,-32.3929"/>
</g>
<!-- ActiveRecord::Base&#45;&gt;Place -->
<g id="edge144" class="edge"><title>ActiveRecord::Base&#45;&gt;Place</title>
<path fill="none" stroke="black" d="M1726.61,-783.971C1933.41,-776.806 2384.62,-755.399 2431,-704 2442.31,-691.462 2439.69,-680.484 2431,-666 2416.04,-641.052 2385.49,-626.791 2361.52,-619.075"/>
</g>
<!-- ActiveRecord::Base&#45;&gt;ColaborationPerson -->
<g id="edge146" class="edge"><title>ActiveRecord::Base&#45;&gt;ColaborationPerson</title>
<path fill="none" stroke="black" d="M1590.93,-769.436C1568.94,-758.727 1539.05,-745.984 1511,-740 1436.21,-724.047 201.521,-741.718 135,-704 92.4191,-679.856 76,-659.949 76,-611 76,-611 76,-611 76,-463 76,-388.077 48.6903,-351.519 99,-296 199.903,-184.649 654.656,-123.839 853.006,-102.21"/>
</g>
<!-- ActiveRecord::Base&#45;&gt;IphPerson -->
<g id="edge148" class="edge"><title>ActiveRecord::Base&#45;&gt;IphPerson</title>
<path fill="none" stroke="black" d="M1590.41,-769.35C1568.45,-758.751 1538.8,-746.162 1511,-740 1464.69,-729.734 690.824,-738.239 658,-704 578.256,-620.819 639.119,-461.454 663.273,-407.432"/>
</g>
<!-- ActiveRecord::Base&#45;&gt;EventsCollection -->
<g id="edge166" class="edge"><title>ActiveRecord::Base&#45;&gt;EventsCollection</title>
<path fill="none" stroke="black" d="M1723.08,-781.224C1877.82,-771.022 2168.92,-746.746 2263,-704 2286.22,-693.45 2284.03,-678.961 2306,-666 2347.04,-641.783 2364.25,-651.067 2407,-630 2451.58,-608.028 2499.28,-575.147 2527.05,-554.939"/>
</g>
<!-- ActiveRecord::Base&#45;&gt;IphIphObject -->
<g id="edge168" class="edge"><title>ActiveRecord::Base&#45;&gt;IphIphObject</title>
<path fill="none" stroke="black" d="M1590.43,-769.237C1568.49,-758.594 1538.83,-745.998 1511,-740 1446.51,-726.102 377.12,-743.127 324,-704 288.805,-678.076 292,-654.712 292,-611 292,-611 292,-611 292,-463 292,-420.813 293.102,-408.202 311,-370 317.329,-356.491 327.619,-343.366 336.657,-333.328"/>
</g>
<!-- ActiveRecord::Base&#45;&gt;OfficeWeapon -->
<g id="edge170" class="edge"><title>ActiveRecord::Base&#45;&gt;OfficeWeapon</title>
<path fill="none" stroke="black" d="M1727.66,-785.485C2042.16,-780.287 2971.54,-760.284 3095,-704 3214.74,-649.415 3267,-594.592 3267,-463 3267,-463 3267,-463 3267,-315 3267,-272.813 3280.03,-249.461 3248,-222 3207.89,-187.609 2441.2,-172.293 2189.97,-168.184"/>
</g>
<!-- ActiveRecord::Base&#45;&gt;Weapon -->
<g id="edge180" class="edge"><title>ActiveRecord::Base&#45;&gt;Weapon</title>
<path fill="none" stroke="black" d="M1726.91,-784.246C1921.8,-777.829 2337.04,-758.087 2469,-704 2565.79,-664.33 2599.7,-646.591 2652,-556 2710.29,-455.021 2765.22,-382.466 2687,-296 2654,-259.527 2320.07,-246.154 2190.24,-242.31"/>
</g>
<!-- ActiveRecord::Base&#45;&gt;EventWeapon -->
<g id="edge182" class="edge"><title>ActiveRecord::Base&#45;&gt;EventWeapon</title>
<path fill="none" stroke="black" d="M1697.56,-773.849C1881.77,-740.619 2349.91,-654.207 2374,-630 2403.76,-600.097 2393,-579.187 2393,-537 2393,-537 2393,-537 2393,-463 2393,-416.027 2403.5,-361.493 2409.65,-333.571"/>
</g>
<!-- ActiveRecord::Base&#45;&gt;Search -->
<g id="edge184" class="edge"><title>ActiveRecord::Base&#45;&gt;Search</title>
<path fill="none" stroke="black" d="M1722.56,-780.95C1855.26,-771.438 2098.16,-749.206 2301,-704 2309.07,-702.202 2317.6,-699.736 2325.57,-697.176"/>
</g>
<!-- ActiveRecord::Base&#45;&gt;ColaborationWeapon -->
<g id="edge186" class="edge"><title>ActiveRecord::Base&#45;&gt;ColaborationWeapon</title>
<path fill="none" stroke="black" d="M1728.04,-786.276C2070.72,-783.278 3150.29,-768.742 3292,-704 3344.04,-680.226 3381,-668.211 3381,-611 3381,-611 3381,-611 3381,-241 3381,-222.883 3420.5,-214.166 3255,-148 3200.6,-126.253 3049.26,-109.928 2946.22,-100.92"/>
</g>
<!-- ActiveRecord::Base&#45;&gt;Priority -->
<g id="edge192" class="edge"><title>ActiveRecord::Base&#45;&gt;Priority</title>
<path fill="none" stroke="black" d="M1692.03,-772.966C1756.24,-758.789 1854.67,-734.629 1937,-704 1997.49,-681.495 2064.53,-646.3 2100.9,-626.281"/>
</g>
<!-- ActiveRecord::Base&#45;&gt;ColaborationPhone -->
<g id="edge194" class="edge"><title>ActiveRecord::Base&#45;&gt;ColaborationPhone</title>
<path fill="none" stroke="black" d="M1727.15,-784.253C2086.64,-774.39 3266.41,-739.458 3339,-704 3387.99,-680.07 3419,-665.522 3419,-611 3419,-611 3419,-611 3419,-167 3419,-32.172 2520.66,-70.4164 2220,-38 2206.65,-36.5606 2192.48,-34.5593 2178.86,-32.3925"/>
</g>
<!-- ActiveRecord::Base&#45;&gt;OfficePerson -->
<g id="edge196" class="edge"><title>ActiveRecord::Base&#45;&gt;OfficePerson</title>
<path fill="none" stroke="black" d="M1589.31,-769.333C1567.42,-759.009 1538.23,-746.723 1511,-740 1338.14,-697.318 1273.6,-778.747 1112,-704 984.209,-644.893 940.461,-611.839 886,-482 879.467,-466.426 876.016,-457.622 886,-444 917.408,-401.144 950.104,-426.262 1000,-408 1121.23,-363.629 1144.74,-334.368 1268,-296 1334.65,-275.252 1413.31,-259.868 1466.72,-250.725"/>
</g>
<!-- ActiveRecord::Base&#45;&gt;CriminalGroup -->
<g id="edge210" class="edge"><title>ActiveRecord::Base&#45;&gt;CriminalGroup</title>
<path fill="none" stroke="black" d="M1728.01,-785.876C2016.11,-781.987 2809.84,-765.728 2909,-704 2964.08,-669.715 2990.81,-591.488 3000.53,-555.608"/>
</g>
<!-- ActiveRecord::Base&#45;&gt;Office -->
<g id="edge230" class="edge"><title>ActiveRecord::Base&#45;&gt;Office</title>
<path fill="none" stroke="black" d="M1635.43,-768.317C1644.82,-751.978 1657.58,-727.285 1664,-704 1677.29,-655.822 1652.64,-637.179 1674,-592 1681.52,-576.108 1695.68,-562.267 1707.88,-552.445"/>
</g>
<!-- ActiveRecord::Base&#45;&gt;Crime -->
<g id="edge236" class="edge"><title>ActiveRecord::Base&#45;&gt;Crime</title>
<path fill="none" stroke="black" d="M1726.52,-783.7C1929.51,-776.108 2366.93,-754.065 2412,-704 2423.3,-691.448 2422.23,-679.442 2412,-666 2375.7,-618.285 2338.91,-648.861 2282,-630 2275.85,-627.962 2269.34,-625.593 2263.15,-623.233"/>
</g>
<!-- ActiveRecord::Base&#45;&gt;Role -->
<g id="edge240" class="edge"><title>ActiveRecord::Base&#45;&gt;Role</title>
<path fill="none" stroke="black" d="M1590.39,-769.415C1568.43,-758.842 1538.78,-746.258 1511,-740 1431.45,-722.076 846.195,-748.705 778,-704 752.39,-687.212 740.508,-651.709 735.415,-629.751"/>
</g>
<!-- ActiveRecord::Base&#45;&gt;CriminalDrug -->
<g id="edge242" class="edge"><title>ActiveRecord::Base&#45;&gt;CriminalDrug</title>
<path fill="none" stroke="black" d="M1727.23,-784.42C2040.5,-776.139 2966.7,-748.166 3095,-704 3163.55,-680.404 3229,-683.494 3229,-611 3229,-611 3229,-611 3229,-389 3229,-338.641 3196.73,-286.348 3177.32,-259.446"/>
</g>
<!-- ActiveRecord::Base&#45;&gt;Area -->
<g id="edge254" class="edge"><title>ActiveRecord::Base&#45;&gt;Area</title>
<path fill="none" stroke="black" d="M1652.06,-768.999C1683.08,-749.097 1732.43,-717.443 1760.85,-699.208"/>
</g>
<!-- ActiveRecord::Base&#45;&gt;IphVehicle -->
<g id="edge258" class="edge"><title>ActiveRecord::Base&#45;&gt;IphVehicle</title>
<path fill="none" stroke="black" d="M1590.44,-769.227C1568.49,-758.579 1538.84,-745.982 1511,-740 1377,-711.204 394.303,-776.517 278,-704 238.355,-679.281 229,-657.72 229,-611 229,-611 229,-611 229,-537 229,-489.781 216.003,-435.348 208.387,-407.507"/>
</g>
<!-- ActiveRecord::Base&#45;&gt;IphDrug -->
<g id="edge260" class="edge"><title>ActiveRecord::Base&#45;&gt;IphDrug</title>
<path fill="none" stroke="black" d="M1590.42,-769.32C1568.46,-758.709 1538.81,-746.119 1511,-740 1410.87,-717.967 667.939,-769.418 589,-704 498.998,-629.414 526.312,-463.063 538.528,-407.484"/>
</g>
<!-- ActiveRecord::Base&#45;&gt;Drug -->
<g id="edge268" class="edge"><title>ActiveRecord::Base&#45;&gt;Drug</title>
<path fill="none" stroke="black" d="M1728.4,-786.241C1998.76,-783.35 2716.46,-769.543 2944,-704 3027.13,-680.054 3115,-697.513 3115,-611 3115,-611 3115,-611 3115,-537 3115,-455.081 3098.45,-424.171 3037,-370 2998.63,-336.18 2939.25,-323.12 2901.52,-318.101"/>
</g>
<!-- ActiveRecord::Base&#45;&gt;Colaboration -->
<g id="edge288" class="edge"><title>ActiveRecord::Base&#45;&gt;Colaboration</title>
<path fill="none" stroke="black" d="M1589.84,-769.427C1567.91,-759 1538.48,-746.571 1511,-740 1303.79,-690.463 1230.5,-783.893 1033,-704 920.972,-658.682 894.14,-601.478 876,-482 873.465,-465.302 866.505,-457.967 876,-444 900.452,-408.03 932.227,-434.126 967,-408 987.896,-392.3 1088.61,-235.48 1111,-222 1151.74,-197.477 1278.49,-181.246 1358.84,-173.124"/>
</g>
<!-- ActiveRecord::Base&#45;&gt;Event -->
<g id="edge312" class="edge"><title>ActiveRecord::Base&#45;&gt;Event</title>
<path fill="none" stroke="black" d="M1726.88,-784.211C1937.36,-777.44 2401.38,-756.647 2449,-704 2504.72,-642.398 2328.14,-462.297 2301,-444 2244.51,-405.917 2216.71,-429.32 2152,-408 2146.68,-406.248 2141.12,-404.137 2135.78,-401.968"/>
</g>
<!-- ActiveRecord::Base&#45;&gt;WeaponType -->
<g id="edge318" class="edge"><title>ActiveRecord::Base&#45;&gt;WeaponType</title>
<path fill="none" stroke="black" d="M1587.82,-769.619C1566,-759.725 1537.39,-747.789 1511,-740 1425.22,-714.68 1380,-763.258 1313,-704 1248.14,-646.63 1293.41,-595.609 1255,-518 1248.56,-504.991 1239.21,-491.68 1231.28,-481.412"/>
</g>
<!-- ActiveRecord::Base&#45;&gt;IphIphPerson -->
<g id="edge320" class="edge"><title>ActiveRecord::Base&#45;&gt;IphIphPerson</title>
<path fill="none" stroke="black" d="M1727.25,-784.611C2064.21,-776.459 3129.64,-747.801 3471,-704 3482.44,-702.532 3494.59,-700.356 3506.12,-697.996"/>
</g>
<!-- Object -->
<g id="node99" class="node"><title>Object</title>
<ellipse fill="none" stroke="black" cx="3683" cy="-787" rx="43.1335" ry="18.3848"/>
<text text-anchor="middle" x="3683" y="-783.4" font-family="Times Roman,serif" font-size="14.00">Object</text>
</g>
<!-- Object&#45;&gt;Ability -->
<g id="edge82" class="edge"><title>Object&#45;&gt;Ability</title>
<path fill="none" stroke="black" d="M3683,-768.292C3683,-749.773 3683,-721.603 3683,-703.247"/>
</g>
</g>
</svg>
